solid zone0
 facet normal 0.259162 -0.965834 0
  outer loop
   vertex 0.00929188 -0.0383915 0.02475
   vertex 0.0111757 -0.0378861 0.02475
   vertex 0.00929188 -0.0383915 0.07575
  endloop
 endfacet
 facet normal 0.259162 -0.965834 0
  outer loop
   vertex 0.00929188 -0.0383915 0.07575
   vertex 0.0111757 -0.0378861 0.02475
   vertex 0.0111757 -0.0378861 0.07575
  endloop
 endfacet
 facet normal 0.306522 -0.951863 0
  outer loop
   vertex 0.0111757 -0.0378861 0.07575
   vertex 0.0130322 -0.0372882 0.02475
   vertex 0.0130322 -0.0372882 0.07575
  endloop
 endfacet
 facet normal 0.306522 -0.951863 0
  outer loop
   vertex 0.0111757 -0.0378861 0.02475
   vertex 0.0130322 -0.0372882 0.02475
   vertex 0.0111757 -0.0378861 0.07575
  endloop
 endfacet
 facet normal 0.353136 -0.935572 0
  outer loop
   vertex 0.0130322 -0.0372882 0.07575
   vertex 0.014857 -0.0365995 0.02475
   vertex 0.014857 -0.0365995 0.07575
  endloop
 endfacet
 facet normal 0.353136 -0.935572 0
  outer loop
   vertex 0.0130322 -0.0372882 0.02475
   vertex 0.014857 -0.0365995 0.02475
   vertex 0.0130322 -0.0372882 0.07575
  endloop
 endfacet
 facet normal 0.398887 -0.917 0
  outer loop
   vertex 0.014857 -0.0365995 0.07575
   vertex 0.0166455 -0.0358215 0.02475
   vertex 0.0166455 -0.0358215 0.07575
  endloop
 endfacet
 facet normal 0.443665 -0.896193 0
  outer loop
   vertex 0.0166455 -0.0358215 0.07575
   vertex 0.0166455 -0.0358215 0.02475
   vertex 0.0183934 -0.0349561 0.07575
  endloop
 endfacet
 facet normal 0.398887 -0.917 0
  outer loop
   vertex 0.014857 -0.0365995 0.02475
   vertex 0.0166455 -0.0358215 0.02475
   vertex 0.014857 -0.0365995 0.07575
  endloop
 endfacet
 facet normal 0.443665 -0.896193 0
  outer loop
   vertex 0.0166455 -0.0358215 0.02475
   vertex 0.0183934 -0.0349561 0.02475
   vertex 0.0183934 -0.0349561 0.07575
  endloop
 endfacet
 facet normal 0.487364 -0.873199 0
  outer loop
   vertex 0.0183934 -0.0349561 0.07575
   vertex 0.0200965 -0.0340056 0.02475
   vertex 0.0200965 -0.0340056 0.07575
  endloop
 endfacet
 facet normal 0.529873 -0.848077 0
  outer loop
   vertex 0.0200965 -0.0340056 0.07575
   vertex 0.0200965 -0.0340056 0.02475
   vertex 0.0217507 -0.0329721 0.07575
  endloop
 endfacet
 facet normal 0.487364 -0.873199 0
  outer loop
   vertex 0.0183934 -0.0349561 0.02475
   vertex 0.0200965 -0.0340056 0.02475
   vertex 0.0183934 -0.0349561 0.07575
  endloop
 endfacet
 facet normal 0.529873 -0.848077 0
  outer loop
   vertex 0.0200965 -0.0340056 0.02475
   vertex 0.0217507 -0.0329721 0.02475
   vertex 0.0217507 -0.0329721 0.07575
  endloop
 endfacet
 facet normal 0.571089 -0.820888 0
  outer loop
   vertex 0.0217507 -0.0329721 0.07575
   vertex 0.0233517 -0.0318582 0.02475
   vertex 0.0233517 -0.0318582 0.07575
  endloop
 endfacet
 facet normal 0.610915 -0.791696 0
  outer loop
   vertex 0.0233517 -0.0318582 0.07575
   vertex 0.0233517 -0.0318582 0.02475
   vertex 0.0248959 -0.0306667 0.07575
  endloop
 endfacet
 facet normal 0.571089 -0.820888 0
  outer loop
   vertex 0.0217507 -0.0329721 0.02475
   vertex 0.0233517 -0.0318582 0.02475
   vertex 0.0217507 -0.0329721 0.07575
  endloop
 endfacet
 facet normal 0.610915 -0.791696 0
  outer loop
   vertex 0.0233517 -0.0318582 0.02475
   vertex 0.0248959 -0.0306667 0.02475
   vertex 0.0248959 -0.0306667 0.07575
  endloop
 endfacet
 facet normal 0.649251 -0.760574 0
  outer loop
   vertex 0.0248959 -0.0306667 0.07575
   vertex 0.0263793 -0.0294004 0.02475
   vertex 0.0263793 -0.0294004 0.07575
  endloop
 endfacet
 facet normal 0.686003 -0.727599 0
  outer loop
   vertex 0.0263793 -0.0294004 0.07575
   vertex 0.0263793 -0.0294004 0.02475
   vertex 0.0277984 -0.0280624 0.07575
  endloop
 endfacet
 facet normal 0.649251 -0.760574 0
  outer loop
   vertex 0.0248959 -0.0306667 0.02475
   vertex 0.0263793 -0.0294004 0.02475
   vertex 0.0248959 -0.0306667 0.07575
  endloop
 endfacet
 facet normal 0.686003 -0.727599 0
  outer loop
   vertex 0.0263793 -0.0294004 0.02475
   vertex 0.0277984 -0.0280624 0.02475
   vertex 0.0277984 -0.0280624 0.07575
  endloop
 endfacet
 facet normal 0.721083 -0.692849 0
  outer loop
   vertex 0.0277984 -0.0280624 0.07575
   vertex 0.0291498 -0.026656 0.02475
   vertex 0.0291498 -0.026656 0.07575
  endloop
 endfacet
 facet normal 0.754405 -0.65641 0
  outer loop
   vertex 0.0291498 -0.026656 0.07575
   vertex 0.0291498 -0.026656 0.02475
   vertex 0.03043 -0.0251846 0.07575
  endloop
 endfacet
 facet normal 0.721083 -0.692849 0
  outer loop
   vertex 0.0277984 -0.0280624 0.02475
   vertex 0.0291498 -0.026656 0.02475
   vertex 0.0277984 -0.0280624 0.07575
  endloop
 endfacet
 facet normal 0.785887 -0.61837 0
  outer loop
   vertex 0.03043 -0.0251846 0.07575
   vertex 0.03043 -0.0251846 0.02475
   vertex 0.0316361 -0.0236518 0.07575
  endloop
 endfacet
 facet normal 0.754405 -0.65641 0
  outer loop
   vertex 0.0291498 -0.026656 0.02475
   vertex 0.03043 -0.0251846 0.02475
   vertex 0.03043 -0.0251846 0.07575
  endloop
 endfacet
 facet normal 0.785887 -0.61837 0
  outer loop
   vertex 0.03043 -0.0251846 0.02475
   vertex 0.0316361 -0.0236518 0.02475
   vertex 0.0316361 -0.0236518 0.07575
  endloop
 endfacet
 facet normal 0.815453 -0.578823 0
  outer loop
   vertex 0.0316361 -0.0236518 0.07575
   vertex 0.0327651 -0.0220613 0.02475
   vertex 0.0327651 -0.0220613 0.07575
  endloop
 endfacet
 facet normal 0.815453 -0.578823 0
  outer loop
   vertex 0.0316361 -0.0236518 0.02475
   vertex 0.0327651 -0.0220613 0.02475
   vertex 0.0316361 -0.0236518 0.07575
  endloop
 endfacet
 facet normal 0.843032 -0.537864 0
  outer loop
   vertex 0.0327651 -0.0220613 0.07575
   vertex 0.0338141 -0.020417 0.02475
   vertex 0.0338141 -0.020417 0.07575
  endloop
 endfacet
 facet normal 0.843032 -0.537864 0
  outer loop
   vertex 0.0327651 -0.0220613 0.02475
   vertex 0.0338141 -0.020417 0.02475
   vertex 0.0327651 -0.0220613 0.07575
  endloop
 endfacet
 facet normal 0.868555 -0.495593 0
  outer loop
   vertex 0.0338141 -0.020417 0.07575
   vertex 0.0347807 -0.018723 0.02475
   vertex 0.0347807 -0.018723 0.07575
  endloop
 endfacet
 facet normal 0.868555 -0.495593 0
  outer loop
   vertex 0.0338141 -0.020417 0.02475
   vertex 0.0347807 -0.018723 0.02475
   vertex 0.0338141 -0.020417 0.07575
  endloop
 endfacet
 facet normal 0.891959 -0.452116 0
  outer loop
   vertex 0.0347807 -0.018723 0.07575
   vertex 0.0356626 -0.0169833 0.02475
   vertex 0.0356626 -0.0169833 0.07575
  endloop
 endfacet
 facet normal 0.891959 -0.452116 0
  outer loop
   vertex 0.0347807 -0.018723 0.02475
   vertex 0.0356626 -0.0169833 0.02475
   vertex 0.0347807 -0.018723 0.07575
  endloop
 endfacet
 facet normal 0.91319 -0.407534 0
  outer loop
   vertex 0.0356626 -0.0169833 0.07575
   vertex 0.0364574 -0.0152022 0.02475
   vertex 0.0364574 -0.0152022 0.07575
  endloop
 endfacet
 facet normal 0.932193 -0.361962 0
  outer loop
   vertex 0.0364574 -0.0152022 0.07575
   vertex 0.0364574 -0.0152022 0.02475
   vertex 0.0371634 -0.013384 0.07575
  endloop
 endfacet
 facet normal 0.91319 -0.407534 0
  outer loop
   vertex 0.0356626 -0.0169833 0.02475
   vertex 0.0364574 -0.0152022 0.02475
   vertex 0.0356626 -0.0169833 0.07575
  endloop
 endfacet
 facet normal 0.932193 -0.361962 0
  outer loop
   vertex 0.0364574 -0.0152022 0.02475
   vertex 0.0371634 -0.013384 0.02475
   vertex 0.0371634 -0.013384 0.07575
  endloop
 endfacet
 facet normal 0.948924 -0.315503 0
  outer loop
   vertex 0.0371634 -0.013384 0.07575
   vertex 0.0377788 -0.0115332 0.02475
   vertex 0.0377788 -0.0115332 0.07575
  endloop
 endfacet
 facet normal 0.963342 -0.268278 0
  outer loop
   vertex 0.0377788 -0.0115332 0.07575
   vertex 0.0377788 -0.0115332 0.02475
   vertex 0.038302 -0.00965429 0.07575
  endloop
 endfacet
 facet normal 0.948924 -0.315503 0
  outer loop
   vertex 0.0371634 -0.013384 0.02475
   vertex 0.0377788 -0.0115332 0.02475
   vertex 0.0371634 -0.013384 0.07575
  endloop
 endfacet
 facet normal 0.963342 -0.268278 0
  outer loop
   vertex 0.0377788 -0.0115332 0.02475
   vertex 0.038302 -0.00965429 0.02475
   vertex 0.038302 -0.00965429 0.07575
  endloop
 endfacet
 facet normal 0.97541 -0.220397 0
  outer loop
   vertex 0.038302 -0.00965429 0.02475
   vertex 0.0387319 -0.00775183 0.02475
   vertex 0.038302 -0.00965429 0.07575
  endloop
 endfacet
 facet normal 0.97541 -0.220397 0
  outer loop
   vertex 0.038302 -0.00965429 0.07575
   vertex 0.0387319 -0.00775183 0.02475
   vertex 0.0387319 -0.00775183 0.07575
  endloop
 endfacet
 facet normal 0.9851 -0.17198 0
  outer loop
   vertex 0.0387319 -0.00775183 0.02475
   vertex 0.0390673 -0.00583047 0.02475
   vertex 0.0387319 -0.00775183 0.07575
  endloop
 endfacet
 facet normal 0.9851 -0.17198 0
  outer loop
   vertex 0.0387319 -0.00775183 0.07575
   vertex 0.0390673 -0.00583047 0.02475
   vertex 0.0390673 -0.00583047 0.07575
  endloop
 endfacet
 facet normal 0.992389 -0.123143 0
  outer loop
   vertex 0.0390673 -0.00583047 0.07575
   vertex 0.0390673 -0.00583047 0.02475
   vertex 0.0393075 -0.0038949 0.07575
  endloop
 endfacet
 facet normal 0.992389 -0.123143 0
  outer loop
   vertex 0.0390673 -0.00583047 0.02475
   vertex 0.0393075 -0.0038949 0.02475
   vertex 0.0393075 -0.0038949 0.07575
  endloop
 endfacet
 facet normal 0.997258 -0.0740068 0
  outer loop
   vertex 0.0393075 -0.0038949 0.02475
   vertex 0.0394518 -0.00194982 0.02475
   vertex 0.0393075 -0.0038949 0.07575
  endloop
 endfacet
 facet normal 0.997258 -0.0740068 0
  outer loop
   vertex 0.0393075 -0.0038949 0.07575
   vertex 0.0394518 -0.00194982 0.02475
   vertex 0.0394518 -0.00194982 0.07575
  endloop
 endfacet
 facet normal 0.999695 -0.0246885 0
  outer loop
   vertex 0.0394518 -0.00194982 0.02475
   vertex 0.0395 -5.32907e-18 0.02475
   vertex 0.0394518 -0.00194982 0.07575
  endloop
 endfacet
 facet normal 0.999695 -0.0246885 0
  outer loop
   vertex 0.0394518 -0.00194982 0.07575
   vertex 0.0395 -5.32907e-18 0.02475
   vertex 0.0395 -5.32907e-18 0.07575
  endloop
 endfacet
 facet normal 0.999695 0.0246885 0
  outer loop
   vertex 0.0395 -5.32907e-18 0.07575
   vertex 0.0395 -5.32907e-18 0.02475
   vertex 0.0394518 0.00194982 0.07575
  endloop
 endfacet
 facet normal 0.999695 0.0246885 0
  outer loop
   vertex 0.0395 -5.32907e-18 0.02475
   vertex 0.0394518 0.00194982 0.02475
   vertex 0.0394518 0.00194982 0.07575
  endloop
 endfacet
 facet normal 0.997258 0.0740068 -0
  outer loop
   vertex 0.0394518 0.00194982 0.02475
   vertex 0.0393075 0.0038949 0.02475
   vertex 0.0394518 0.00194982 0.07575
  endloop
 endfacet
 facet normal 0.997258 0.0740068 0
  outer loop
   vertex 0.0394518 0.00194982 0.07575
   vertex 0.0393075 0.0038949 0.02475
   vertex 0.0393075 0.0038949 0.07575
  endloop
 endfacet
 facet normal 0.992389 0.123143 0
  outer loop
   vertex 0.0393075 0.0038949 0.07575
   vertex 0.0390673 0.00583047 0.02475
   vertex 0.0390673 0.00583047 0.07575
  endloop
 endfacet
 facet normal 0.992389 0.123143 -0
  outer loop
   vertex 0.0393075 0.0038949 0.02475
   vertex 0.0390673 0.00583047 0.02475
   vertex 0.0393075 0.0038949 0.07575
  endloop
 endfacet
 facet normal 0.9851 0.17198 0
  outer loop
   vertex 0.0390673 0.00583047 0.07575
   vertex 0.0387319 0.00775183 0.02475
   vertex 0.0387319 0.00775183 0.07575
  endloop
 endfacet
 facet normal 0.9851 0.17198 -0
  outer loop
   vertex 0.0390673 0.00583047 0.02475
   vertex 0.0387319 0.00775183 0.02475
   vertex 0.0390673 0.00583047 0.07575
  endloop
 endfacet
 facet normal 0.97541 0.220397 0
  outer loop
   vertex 0.0387319 0.00775183 0.07575
   vertex 0.038302 0.00965429 0.02475
   vertex 0.038302 0.00965429 0.07575
  endloop
 endfacet
 facet normal 0.97541 0.220397 -0
  outer loop
   vertex 0.0387319 0.00775183 0.02475
   vertex 0.038302 0.00965429 0.02475
   vertex 0.0387319 0.00775183 0.07575
  endloop
 endfacet
 facet normal 0.963342 0.268278 0
  outer loop
   vertex 0.038302 0.00965429 0.07575
   vertex 0.0377788 0.0115332 0.02475
   vertex 0.0377788 0.0115332 0.07575
  endloop
 endfacet
 facet normal 0.963342 0.268278 -0
  outer loop
   vertex 0.038302 0.00965429 0.02475
   vertex 0.0377788 0.0115332 0.02475
   vertex 0.038302 0.00965429 0.07575
  endloop
 endfacet
 facet normal 0.948924 0.315503 0
  outer loop
   vertex 0.0377788 0.0115332 0.07575
   vertex 0.0371634 0.013384 0.02475
   vertex 0.0371634 0.013384 0.07575
  endloop
 endfacet
 facet normal 0.948924 0.315503 -0
  outer loop
   vertex 0.0377788 0.0115332 0.02475
   vertex 0.0371634 0.013384 0.02475
   vertex 0.0377788 0.0115332 0.07575
  endloop
 endfacet
 facet normal 0.932193 0.361962 0
  outer loop
   vertex 0.0371634 0.013384 0.07575
   vertex 0.0364574 0.0152022 0.02475
   vertex 0.0364574 0.0152022 0.07575
  endloop
 endfacet
 facet normal 0.932193 0.361962 -0
  outer loop
   vertex 0.0371634 0.013384 0.02475
   vertex 0.0364574 0.0152022 0.02475
   vertex 0.0371634 0.013384 0.07575
  endloop
 endfacet
 facet normal 0.91319 0.407534 0
  outer loop
   vertex 0.0364574 0.0152022 0.07575
   vertex 0.0356626 0.0169833 0.02475
   vertex 0.0356626 0.0169833 0.07575
  endloop
 endfacet
 facet normal 0.91319 0.407534 -0
  outer loop
   vertex 0.0364574 0.0152022 0.02475
   vertex 0.0356626 0.0169833 0.02475
   vertex 0.0364574 0.0152022 0.07575
  endloop
 endfacet
 facet normal 0.891959 0.452116 0
  outer loop
   vertex 0.0356626 0.0169833 0.07575
   vertex 0.0347807 0.018723 0.02475
   vertex 0.0347807 0.018723 0.07575
  endloop
 endfacet
 facet normal 0.891959 0.452116 -0
  outer loop
   vertex 0.0356626 0.0169833 0.02475
   vertex 0.0347807 0.018723 0.02475
   vertex 0.0356626 0.0169833 0.07575
  endloop
 endfacet
 facet normal 0.868555 0.495593 0
  outer loop
   vertex 0.0347807 0.018723 0.07575
   vertex 0.0338141 0.020417 0.02475
   vertex 0.0338141 0.020417 0.07575
  endloop
 endfacet
 facet normal 0.843032 0.537864 0
  outer loop
   vertex 0.0338141 0.020417 0.07575
   vertex 0.0338141 0.020417 0.02475
   vertex 0.0327651 0.0220613 0.07575
  endloop
 endfacet
 facet normal 0.868555 0.495593 -0
  outer loop
   vertex 0.0347807 0.018723 0.02475
   vertex 0.0338141 0.020417 0.02475
   vertex 0.0347807 0.018723 0.07575
  endloop
 endfacet
 facet normal 0.843032 0.537864 0
  outer loop
   vertex 0.0338141 0.020417 0.02475
   vertex 0.0327651 0.0220613 0.02475
   vertex 0.0327651 0.0220613 0.07575
  endloop
 endfacet
 facet normal 0.815453 0.578823 0
  outer loop
   vertex 0.0327651 0.0220613 0.07575
   vertex 0.0316361 0.0236518 0.02475
   vertex 0.0316361 0.0236518 0.07575
  endloop
 endfacet
 facet normal 0.815453 0.578823 -0
  outer loop
   vertex 0.0327651 0.0220613 0.02475
   vertex 0.0316361 0.0236518 0.02475
   vertex 0.0327651 0.0220613 0.07575
  endloop
 endfacet
 facet normal 0.785887 0.61837 0
  outer loop
   vertex 0.0316361 0.0236518 0.07575
   vertex 0.03043 0.0251846 0.02475
   vertex 0.03043 0.0251846 0.07575
  endloop
 endfacet
 facet normal 0.785887 0.61837 -0
  outer loop
   vertex 0.0316361 0.0236518 0.02475
   vertex 0.03043 0.0251846 0.02475
   vertex 0.0316361 0.0236518 0.07575
  endloop
 endfacet
 facet normal 0.754405 0.65641 0
  outer loop
   vertex 0.03043 0.0251846 0.07575
   vertex 0.0291498 0.026656 0.02475
   vertex 0.0291498 0.026656 0.07575
  endloop
 endfacet
 facet normal 0.754405 0.65641 -0
  outer loop
   vertex 0.03043 0.0251846 0.02475
   vertex 0.0291498 0.026656 0.02475
   vertex 0.03043 0.0251846 0.07575
  endloop
 endfacet
 facet normal 0.721083 0.692849 0
  outer loop
   vertex 0.0291498 0.026656 0.07575
   vertex 0.0277984 0.0280624 0.02475
   vertex 0.0277984 0.0280624 0.07575
  endloop
 endfacet
 facet normal 0.721083 0.692849 -0
  outer loop
   vertex 0.0291498 0.026656 0.02475
   vertex 0.0277984 0.0280624 0.02475
   vertex 0.0291498 0.026656 0.07575
  endloop
 endfacet
 facet normal 0.686003 0.727599 0
  outer loop
   vertex 0.0277984 0.0280624 0.07575
   vertex 0.0263793 0.0294004 0.02475
   vertex 0.0263793 0.0294004 0.07575
  endloop
 endfacet
 facet normal 0.686003 0.727599 -0
  outer loop
   vertex 0.0277984 0.0280624 0.02475
   vertex 0.0263793 0.0294004 0.02475
   vertex 0.0277984 0.0280624 0.07575
  endloop
 endfacet
 facet normal 0.649251 0.760574 0
  outer loop
   vertex 0.0263793 0.0294004 0.07575
   vertex 0.0248959 0.0306667 0.02475
   vertex 0.0248959 0.0306667 0.07575
  endloop
 endfacet
 facet normal 0.610915 0.791696 0
  outer loop
   vertex 0.0248959 0.0306667 0.07575
   vertex 0.0248959 0.0306667 0.02475
   vertex 0.0233517 0.0318582 0.07575
  endloop
 endfacet
 facet normal 0.649251 0.760574 -0
  outer loop
   vertex 0.0263793 0.0294004 0.02475
   vertex 0.0248959 0.0306667 0.02475
   vertex 0.0263793 0.0294004 0.07575
  endloop
 endfacet
 facet normal 0.610915 0.791696 0
  outer loop
   vertex 0.0248959 0.0306667 0.02475
   vertex 0.0233517 0.0318582 0.02475
   vertex 0.0233517 0.0318582 0.07575
  endloop
 endfacet
 facet normal 0.571089 0.820888 0
  outer loop
   vertex 0.0233517 0.0318582 0.07575
   vertex 0.0217507 0.0329721 0.02475
   vertex 0.0217507 0.0329721 0.07575
  endloop
 endfacet
 facet normal 0.529873 0.848077 0
  outer loop
   vertex 0.0217507 0.0329721 0.07575
   vertex 0.0217507 0.0329721 0.02475
   vertex 0.0200965 0.0340056 0.07575
  endloop
 endfacet
 facet normal 0.571089 0.820888 -0
  outer loop
   vertex 0.0233517 0.0318582 0.02475
   vertex 0.0217507 0.0329721 0.02475
   vertex 0.0233517 0.0318582 0.07575
  endloop
 endfacet
 facet normal 0.529873 0.848077 0
  outer loop
   vertex 0.0217507 0.0329721 0.02475
   vertex 0.0200965 0.0340056 0.02475
   vertex 0.0200965 0.0340056 0.07575
  endloop
 endfacet
 facet normal 0.487364 0.873199 0
  outer loop
   vertex 0.0200965 0.0340056 0.07575
   vertex 0.0200965 0.0340056 0.02475
   vertex 0.0183934 0.0349561 0.07575
  endloop
 endfacet
 facet normal 0.487364 0.873199 0
  outer loop
   vertex 0.0200965 0.0340056 0.02475
   vertex 0.0183934 0.0349561 0.02475
   vertex 0.0183934 0.0349561 0.07575
  endloop
 endfacet
 facet normal 0.443665 0.896193 0
  outer loop
   vertex 0.0183934 0.0349561 0.07575
   vertex 0.0183934 0.0349561 0.02475
   vertex 0.0166455 0.0358215 0.07575
  endloop
 endfacet
 facet normal 0.443665 0.896193 0
  outer loop
   vertex 0.0183934 0.0349561 0.02475
   vertex 0.0166455 0.0358215 0.02475
   vertex 0.0166455 0.0358215 0.07575
  endloop
 endfacet
 facet normal 0.398887 0.917 -0
  outer loop
   vertex 0.0166455 0.0358215 0.02475
   vertex 0.014857 0.0365995 0.02475
   vertex 0.0166455 0.0358215 0.07575
  endloop
 endfacet
 facet normal 0.398887 0.917 0
  outer loop
   vertex 0.0166455 0.0358215 0.07575
   vertex 0.014857 0.0365995 0.02475
   vertex 0.014857 0.0365995 0.07575
  endloop
 endfacet
 facet normal 0.353136 0.935572 -0
  outer loop
   vertex 0.014857 0.0365995 0.02475
   vertex 0.0130322 0.0372882 0.02475
   vertex 0.014857 0.0365995 0.07575
  endloop
 endfacet
 facet normal 0.353136 0.935572 0
  outer loop
   vertex 0.014857 0.0365995 0.07575
   vertex 0.0130322 0.0372882 0.02475
   vertex 0.0130322 0.0372882 0.07575
  endloop
 endfacet
 facet normal 0.306522 0.951863 0
  outer loop
   vertex 0.0130322 0.0372882 0.07575
   vertex 0.0130322 0.0372882 0.02475
   vertex 0.0111757 0.0378861 0.07575
  endloop
 endfacet
 facet normal 0.306522 0.951863 0
  outer loop
   vertex 0.0130322 0.0372882 0.02475
   vertex 0.0111757 0.0378861 0.02475
   vertex 0.0111757 0.0378861 0.07575
  endloop
 endfacet
 facet normal 0.259162 0.965834 -0
  outer loop
   vertex 0.0111757 0.0378861 0.02475
   vertex 0.00929188 0.0383915 0.02475
   vertex 0.0111757 0.0378861 0.07575
  endloop
 endfacet
 facet normal 0.259162 0.965834 0
  outer loop
   vertex 0.0111757 0.0378861 0.07575
   vertex 0.00929188 0.0383915 0.02475
   vertex 0.00929188 0.0383915 0.07575
  endloop
 endfacet
 facet normal -0.971938 0.235238 0
  outer loop
   vertex 0.00929188 0.0383915 0.02475
   vertex 0.00870379 0.0359617 0.02475
   vertex 0.00929188 0.0383915 0.07575
  endloop
 endfacet
 facet normal -0.971938 0.235238 0
  outer loop
   vertex 0.00929188 0.0383915 0.07575
   vertex 0.00870379 0.0359617 0.02475
   vertex 0.00870379 0.0359617 0.07575
  endloop
 endfacet
 facet normal -0.259163 -0.965834 0
  outer loop
   vertex 0.00870379 0.0359617 0.02475
   vertex 0.0104683 0.0354882 0.02475
   vertex 0.00870379 0.0359617 0.07575
  endloop
 endfacet
 facet normal -0.259163 -0.965834 0
  outer loop
   vertex 0.00870379 0.0359617 0.07575
   vertex 0.0104683 0.0354882 0.02475
   vertex 0.0104683 0.0354882 0.07575
  endloop
 endfacet
 facet normal -0.306523 -0.951863 0
  outer loop
   vertex 0.0104683 0.0354882 0.07575
   vertex 0.0122074 0.0349282 0.02475
   vertex 0.0122074 0.0349282 0.07575
  endloop
 endfacet
 facet normal -0.353135 -0.935572 -0
  outer loop
   vertex 0.0122074 0.0349282 0.07575
   vertex 0.0122074 0.0349282 0.02475
   vertex 0.0139166 0.034283 0.07575
  endloop
 endfacet
 facet normal -0.306523 -0.951863 0
  outer loop
   vertex 0.0104683 0.0354882 0.02475
   vertex 0.0122074 0.0349282 0.02475
   vertex 0.0104683 0.0354882 0.07575
  endloop
 endfacet
 facet normal -0.398887 -0.917 -0
  outer loop
   vertex 0.0139166 0.034283 0.07575
   vertex 0.0139166 0.034283 0.02475
   vertex 0.015592 0.0335543 0.07575
  endloop
 endfacet
 facet normal -0.353135 -0.935572 0
  outer loop
   vertex 0.0122074 0.0349282 0.02475
   vertex 0.0139166 0.034283 0.02475
   vertex 0.0139166 0.034283 0.07575
  endloop
 endfacet
 facet normal -0.398887 -0.917 0
  outer loop
   vertex 0.0139166 0.034283 0.02475
   vertex 0.015592 0.0335543 0.02475
   vertex 0.015592 0.0335543 0.07575
  endloop
 endfacet
 facet normal -0.443666 -0.896192 0
  outer loop
   vertex 0.015592 0.0335543 0.07575
   vertex 0.0172293 0.0327437 0.02475
   vertex 0.0172293 0.0327437 0.07575
  endloop
 endfacet
 facet normal -0.487364 -0.873199 -0
  outer loop
   vertex 0.0172293 0.0327437 0.07575
   vertex 0.0172293 0.0327437 0.02475
   vertex 0.0188246 0.0318533 0.07575
  endloop
 endfacet
 facet normal -0.443666 -0.896192 0
  outer loop
   vertex 0.015592 0.0335543 0.02475
   vertex 0.0172293 0.0327437 0.02475
   vertex 0.015592 0.0335543 0.07575
  endloop
 endfacet
 facet normal -0.487364 -0.873199 0
  outer loop
   vertex 0.0172293 0.0327437 0.02475
   vertex 0.0188246 0.0318533 0.02475
   vertex 0.0188246 0.0318533 0.07575
  endloop
 endfacet
 facet normal -0.529872 -0.848077 0
  outer loop
   vertex 0.0188246 0.0318533 0.07575
   vertex 0.020374 0.0308853 0.02475
   vertex 0.020374 0.0308853 0.07575
  endloop
 endfacet
 facet normal -0.529872 -0.848077 0
  outer loop
   vertex 0.0188246 0.0318533 0.02475
   vertex 0.020374 0.0308853 0.02475
   vertex 0.0188246 0.0318533 0.07575
  endloop
 endfacet
 facet normal -0.57109 -0.820887 0
  outer loop
   vertex 0.020374 0.0308853 0.07575
   vertex 0.0218738 0.0298419 0.02475
   vertex 0.0218738 0.0298419 0.07575
  endloop
 endfacet
 facet normal -0.57109 -0.820887 0
  outer loop
   vertex 0.020374 0.0308853 0.02475
   vertex 0.0218738 0.0298419 0.02475
   vertex 0.020374 0.0308853 0.07575
  endloop
 endfacet
 facet normal -0.610915 -0.791696 0
  outer loop
   vertex 0.0218738 0.0298419 0.07575
   vertex 0.0233202 0.0287258 0.02475
   vertex 0.0233202 0.0287258 0.07575
  endloop
 endfacet
 facet normal -0.610915 -0.791696 0
  outer loop
   vertex 0.0218738 0.0298419 0.02475
   vertex 0.0233202 0.0287258 0.02475
   vertex 0.0218738 0.0298419 0.07575
  endloop
 endfacet
 facet normal -0.649251 -0.760575 0
  outer loop
   vertex 0.0233202 0.0287258 0.07575
   vertex 0.0247097 0.0275396 0.02475
   vertex 0.0247097 0.0275396 0.07575
  endloop
 endfacet
 facet normal -0.649251 -0.760575 0
  outer loop
   vertex 0.0233202 0.0287258 0.02475
   vertex 0.0247097 0.0275396 0.02475
   vertex 0.0233202 0.0287258 0.07575
  endloop
 endfacet
 facet normal -0.686003 -0.727598 0
  outer loop
   vertex 0.0247097 0.0275396 0.07575
   vertex 0.026039 0.0262863 0.02475
   vertex 0.026039 0.0262863 0.07575
  endloop
 endfacet
 facet normal -0.721083 -0.692849 -0
  outer loop
   vertex 0.026039 0.0262863 0.07575
   vertex 0.026039 0.0262863 0.02475
   vertex 0.0273048 0.0249689 0.07575
  endloop
 endfacet
 facet normal -0.686003 -0.727598 0
  outer loop
   vertex 0.0247097 0.0275396 0.02475
   vertex 0.026039 0.0262863 0.02475
   vertex 0.0247097 0.0275396 0.07575
  endloop
 endfacet
 facet normal -0.721083 -0.692849 0
  outer loop
   vertex 0.026039 0.0262863 0.02475
   vertex 0.0273048 0.0249689 0.02475
   vertex 0.0273048 0.0249689 0.07575
  endloop
 endfacet
 facet normal -0.754405 -0.656409 0
  outer loop
   vertex 0.0273048 0.0249689 0.07575
   vertex 0.0285041 0.0235906 0.02475
   vertex 0.0285041 0.0235906 0.07575
  endloop
 endfacet
 facet normal -0.754405 -0.656409 0
  outer loop
   vertex 0.0273048 0.0249689 0.02475
   vertex 0.0285041 0.0235906 0.02475
   vertex 0.0273048 0.0249689 0.07575
  endloop
 endfacet
 facet normal -0.785888 -0.618369 0
  outer loop
   vertex 0.0285041 0.0235906 0.07575
   vertex 0.0296338 0.0221548 0.02475
   vertex 0.0296338 0.0221548 0.07575
  endloop
 endfacet
 facet normal -0.815454 -0.578822 -0
  outer loop
   vertex 0.0296338 0.0221548 0.07575
   vertex 0.0296338 0.0221548 0.02475
   vertex 0.0306913 0.020665 0.07575
  endloop
 endfacet
 facet normal -0.785888 -0.618369 0
  outer loop
   vertex 0.0285041 0.0235906 0.02475
   vertex 0.0296338 0.0221548 0.02475
   vertex 0.0285041 0.0235906 0.07575
  endloop
 endfacet
 facet normal -0.815454 -0.578822 0
  outer loop
   vertex 0.0296338 0.0221548 0.02475
   vertex 0.0306913 0.020665 0.02475
   vertex 0.0306913 0.020665 0.07575
  endloop
 endfacet
 facet normal -0.843032 -0.537864 0
  outer loop
   vertex 0.0306913 0.020665 0.07575
   vertex 0.031674 0.0191248 0.02475
   vertex 0.031674 0.0191248 0.07575
  endloop
 endfacet
 facet normal -0.843032 -0.537864 0
  outer loop
   vertex 0.0306913 0.020665 0.02475
   vertex 0.031674 0.0191248 0.02475
   vertex 0.0306913 0.020665 0.07575
  endloop
 endfacet
 facet normal -0.868554 -0.495594 0
  outer loop
   vertex 0.031674 0.0191248 0.07575
   vertex 0.0325794 0.017538 0.02475
   vertex 0.0325794 0.017538 0.07575
  endloop
 endfacet
 facet normal -0.891959 -0.452116 -0
  outer loop
   vertex 0.0325794 0.017538 0.07575
   vertex 0.0325794 0.017538 0.02475
   vertex 0.0334054 0.0159084 0.07575
  endloop
 endfacet
 facet normal -0.868554 -0.495594 0
  outer loop
   vertex 0.031674 0.0191248 0.02475
   vertex 0.0325794 0.017538 0.02475
   vertex 0.031674 0.0191248 0.07575
  endloop
 endfacet
 facet normal -0.891959 -0.452116 0
  outer loop
   vertex 0.0325794 0.017538 0.02475
   vertex 0.0334054 0.0159084 0.02475
   vertex 0.0334054 0.0159084 0.07575
  endloop
 endfacet
 facet normal -0.91319 -0.407535 0
  outer loop
   vertex 0.0334054 0.0159084 0.07575
   vertex 0.03415 0.01424 0.02475
   vertex 0.03415 0.01424 0.07575
  endloop
 endfacet
 facet normal -0.91319 -0.407535 0
  outer loop
   vertex 0.0334054 0.0159084 0.02475
   vertex 0.03415 0.01424 0.02475
   vertex 0.0334054 0.0159084 0.07575
  endloop
 endfacet
 facet normal -0.932193 -0.361961 0
  outer loop
   vertex 0.03415 0.01424 0.07575
   vertex 0.0348113 0.0125369 0.02475
   vertex 0.0348113 0.0125369 0.07575
  endloop
 endfacet
 facet normal -0.948925 -0.315503 -0
  outer loop
   vertex 0.0348113 0.0125369 0.07575
   vertex 0.0348113 0.0125369 0.02475
   vertex 0.0353877 0.0108033 0.07575
  endloop
 endfacet
 facet normal -0.932193 -0.361961 0
  outer loop
   vertex 0.03415 0.01424 0.02475
   vertex 0.0348113 0.0125369 0.02475
   vertex 0.03415 0.01424 0.07575
  endloop
 endfacet
 facet normal -0.948925 -0.315503 0
  outer loop
   vertex 0.0348113 0.0125369 0.02475
   vertex 0.0353877 0.0108033 0.02475
   vertex 0.0353877 0.0108033 0.07575
  endloop
 endfacet
 facet normal -0.963341 -0.268279 0
  outer loop
   vertex 0.0353877 0.0108033 0.07575
   vertex 0.0358778 0.00904326 0.02475
   vertex 0.0358778 0.00904326 0.07575
  endloop
 endfacet
 facet normal -0.97541 -0.220397 -0
  outer loop
   vertex 0.0358778 0.00904326 0.07575
   vertex 0.0358778 0.00904326 0.02475
   vertex 0.0362805 0.00726121 0.07575
  endloop
 endfacet
 facet normal -0.963341 -0.268279 0
  outer loop
   vertex 0.0353877 0.0108033 0.02475
   vertex 0.0358778 0.00904326 0.02475
   vertex 0.0353877 0.0108033 0.07575
  endloop
 endfacet
 facet normal -0.97541 -0.220397 0
  outer loop
   vertex 0.0358778 0.00904326 0.02475
   vertex 0.0362805 0.00726121 0.02475
   vertex 0.0362805 0.00726121 0.07575
  endloop
 endfacet
 facet normal -0.9851 -0.171981 0
  outer loop
   vertex 0.0362805 0.00726121 0.02475
   vertex 0.0365947 0.00546145 0.02475
   vertex 0.0362805 0.00726121 0.07575
  endloop
 endfacet
 facet normal -0.9851 -0.171981 0
  outer loop
   vertex 0.0362805 0.00726121 0.07575
   vertex 0.0365947 0.00546145 0.02475
   vertex 0.0365947 0.00546145 0.07575
  endloop
 endfacet
 facet normal -0.992389 -0.123143 0
  outer loop
   vertex 0.0365947 0.00546145 0.02475
   vertex 0.0368197 0.00364838 0.02475
   vertex 0.0365947 0.00546145 0.07575
  endloop
 endfacet
 facet normal -0.992389 -0.123143 0
  outer loop
   vertex 0.0365947 0.00546145 0.07575
   vertex 0.0368197 0.00364838 0.02475
   vertex 0.0368197 0.00364838 0.07575
  endloop
 endfacet
 facet normal -0.997258 -0.0740066 0
  outer loop
   vertex 0.0368197 0.00364838 0.02475
   vertex 0.0369549 0.00182642 0.02475
   vertex 0.0368197 0.00364838 0.07575
  endloop
 endfacet
 facet normal -0.997258 -0.0740066 0
  outer loop
   vertex 0.0368197 0.00364838 0.07575
   vertex 0.0369549 0.00182642 0.02475
   vertex 0.0369549 0.00182642 0.07575
  endloop
 endfacet
 facet normal -0.999695 -0.0246883 0
  outer loop
   vertex 0.0369549 0.00182642 0.02475
   vertex 0.037 0 0.02475
   vertex 0.0369549 0.00182642 0.07575
  endloop
 endfacet
 facet normal -0.999695 -0.0246883 0
  outer loop
   vertex 0.0369549 0.00182642 0.07575
   vertex 0.037 0 0.02475
   vertex 0.037 0 0.07575
  endloop
 endfacet
 facet normal -0.999695 0.0246883 0
  outer loop
   vertex 0.037 0 0.02475
   vertex 0.0369549 -0.00182642 0.02475
   vertex 0.037 0 0.07575
  endloop
 endfacet
 facet normal -0.999695 0.0246883 0
  outer loop
   vertex 0.037 0 0.07575
   vertex 0.0369549 -0.00182642 0.02475
   vertex 0.0369549 -0.00182642 0.07575
  endloop
 endfacet
 facet normal -0.997258 0.0740066 0
  outer loop
   vertex 0.0369549 -0.00182642 0.07575
   vertex 0.0369549 -0.00182642 0.02475
   vertex 0.0368197 -0.00364838 0.07575
  endloop
 endfacet
 facet normal -0.992389 0.123143 0
  outer loop
   vertex 0.0368197 -0.00364838 0.07575
   vertex 0.0368197 -0.00364838 0.02475
   vertex 0.0365947 -0.00546145 0.07575
  endloop
 endfacet
 facet normal -0.997258 0.0740066 0
  outer loop
   vertex 0.0369549 -0.00182642 0.02475
   vertex 0.0368197 -0.00364838 0.02475
   vertex 0.0368197 -0.00364838 0.07575
  endloop
 endfacet
 facet normal -0.992389 0.123143 0
  outer loop
   vertex 0.0368197 -0.00364838 0.02475
   vertex 0.0365947 -0.00546145 0.02475
   vertex 0.0365947 -0.00546145 0.07575
  endloop
 endfacet
 facet normal -0.9851 0.171981 0
  outer loop
   vertex 0.0365947 -0.00546145 0.07575
   vertex 0.0362805 -0.00726121 0.02475
   vertex 0.0362805 -0.00726121 0.07575
  endloop
 endfacet
 facet normal -0.9851 0.171981 0
  outer loop
   vertex 0.0365947 -0.00546145 0.02475
   vertex 0.0362805 -0.00726121 0.02475
   vertex 0.0365947 -0.00546145 0.07575
  endloop
 endfacet
 facet normal -0.97541 0.220397 0
  outer loop
   vertex 0.0362805 -0.00726121 0.07575
   vertex 0.0358778 -0.00904326 0.02475
   vertex 0.0358778 -0.00904326 0.07575
  endloop
 endfacet
 facet normal -0.97541 0.220397 0
  outer loop
   vertex 0.0362805 -0.00726121 0.02475
   vertex 0.0358778 -0.00904326 0.02475
   vertex 0.0362805 -0.00726121 0.07575
  endloop
 endfacet
 facet normal -0.963341 0.268279 0
  outer loop
   vertex 0.0358778 -0.00904326 0.07575
   vertex 0.0353877 -0.0108033 0.02475
   vertex 0.0353877 -0.0108033 0.07575
  endloop
 endfacet
 facet normal -0.963341 0.268279 0
  outer loop
   vertex 0.0358778 -0.00904326 0.02475
   vertex 0.0353877 -0.0108033 0.02475
   vertex 0.0358778 -0.00904326 0.07575
  endloop
 endfacet
 facet normal -0.948925 0.315503 0
  outer loop
   vertex 0.0353877 -0.0108033 0.07575
   vertex 0.0348113 -0.0125369 0.02475
   vertex 0.0348113 -0.0125369 0.07575
  endloop
 endfacet
 facet normal -0.932193 0.361961 0
  outer loop
   vertex 0.0348113 -0.0125369 0.07575
   vertex 0.0348113 -0.0125369 0.02475
   vertex 0.03415 -0.01424 0.07575
  endloop
 endfacet
 facet normal -0.948925 0.315503 0
  outer loop
   vertex 0.0353877 -0.0108033 0.02475
   vertex 0.0348113 -0.0125369 0.02475
   vertex 0.0353877 -0.0108033 0.07575
  endloop
 endfacet
 facet normal -0.932193 0.361961 0
  outer loop
   vertex 0.0348113 -0.0125369 0.02475
   vertex 0.03415 -0.01424 0.02475
   vertex 0.03415 -0.01424 0.07575
  endloop
 endfacet
 facet normal -0.91319 0.407535 0
  outer loop
   vertex 0.03415 -0.01424 0.07575
   vertex 0.0334054 -0.0159084 0.02475
   vertex 0.0334054 -0.0159084 0.07575
  endloop
 endfacet
 facet normal -0.91319 0.407535 0
  outer loop
   vertex 0.03415 -0.01424 0.02475
   vertex 0.0334054 -0.0159084 0.02475
   vertex 0.03415 -0.01424 0.07575
  endloop
 endfacet
 facet normal -0.891959 0.452116 0
  outer loop
   vertex 0.0334054 -0.0159084 0.07575
   vertex 0.0325794 -0.017538 0.02475
   vertex 0.0325794 -0.017538 0.07575
  endloop
 endfacet
 facet normal -0.891959 0.452116 0
  outer loop
   vertex 0.0334054 -0.0159084 0.02475
   vertex 0.0325794 -0.017538 0.02475
   vertex 0.0334054 -0.0159084 0.07575
  endloop
 endfacet
 facet normal -0.868554 0.495594 0
  outer loop
   vertex 0.0325794 -0.017538 0.07575
   vertex 0.031674 -0.0191248 0.02475
   vertex 0.031674 -0.0191248 0.07575
  endloop
 endfacet
 facet normal -0.868554 0.495594 0
  outer loop
   vertex 0.0325794 -0.017538 0.02475
   vertex 0.031674 -0.0191248 0.02475
   vertex 0.0325794 -0.017538 0.07575
  endloop
 endfacet
 facet normal -0.843032 0.537864 0
  outer loop
   vertex 0.031674 -0.0191248 0.07575
   vertex 0.0306913 -0.020665 0.02475
   vertex 0.0306913 -0.020665 0.07575
  endloop
 endfacet
 facet normal -0.815454 0.578822 0
  outer loop
   vertex 0.0306913 -0.020665 0.07575
   vertex 0.0306913 -0.020665 0.02475
   vertex 0.0296338 -0.0221548 0.07575
  endloop
 endfacet
 facet normal -0.843032 0.537864 0
  outer loop
   vertex 0.031674 -0.0191248 0.02475
   vertex 0.0306913 -0.020665 0.02475
   vertex 0.031674 -0.0191248 0.07575
  endloop
 endfacet
 facet normal -0.785888 0.618369 0
  outer loop
   vertex 0.0296338 -0.0221548 0.07575
   vertex 0.0296338 -0.0221548 0.02475
   vertex 0.0285041 -0.0235906 0.07575
  endloop
 endfacet
 facet normal -0.815454 0.578822 0
  outer loop
   vertex 0.0306913 -0.020665 0.02475
   vertex 0.0296338 -0.0221548 0.02475
   vertex 0.0296338 -0.0221548 0.07575
  endloop
 endfacet
 facet normal -0.785888 0.618369 0
  outer loop
   vertex 0.0296338 -0.0221548 0.02475
   vertex 0.0285041 -0.0235906 0.02475
   vertex 0.0285041 -0.0235906 0.07575
  endloop
 endfacet
 facet normal -0.754405 0.656409 0
  outer loop
   vertex 0.0285041 -0.0235906 0.07575
   vertex 0.0273048 -0.0249689 0.02475
   vertex 0.0273048 -0.0249689 0.07575
  endloop
 endfacet
 facet normal -0.754405 0.656409 0
  outer loop
   vertex 0.0285041 -0.0235906 0.02475
   vertex 0.0273048 -0.0249689 0.02475
   vertex 0.0285041 -0.0235906 0.07575
  endloop
 endfacet
 facet normal -0.721083 0.692849 0
  outer loop
   vertex 0.0273048 -0.0249689 0.07575
   vertex 0.026039 -0.0262863 0.02475
   vertex 0.026039 -0.0262863 0.07575
  endloop
 endfacet
 facet normal -0.721083 0.692849 0
  outer loop
   vertex 0.0273048 -0.0249689 0.02475
   vertex 0.026039 -0.0262863 0.02475
   vertex 0.0273048 -0.0249689 0.07575
  endloop
 endfacet
 facet normal -0.686003 0.727598 0
  outer loop
   vertex 0.026039 -0.0262863 0.07575
   vertex 0.0247097 -0.0275396 0.02475
   vertex 0.0247097 -0.0275396 0.07575
  endloop
 endfacet
 facet normal -0.686003 0.727598 0
  outer loop
   vertex 0.026039 -0.0262863 0.02475
   vertex 0.0247097 -0.0275396 0.02475
   vertex 0.026039 -0.0262863 0.07575
  endloop
 endfacet
 facet normal -0.649251 0.760575 0
  outer loop
   vertex 0.0247097 -0.0275396 0.07575
   vertex 0.0233202 -0.0287258 0.02475
   vertex 0.0233202 -0.0287258 0.07575
  endloop
 endfacet
 facet normal -0.649251 0.760575 0
  outer loop
   vertex 0.0247097 -0.0275396 0.02475
   vertex 0.0233202 -0.0287258 0.02475
   vertex 0.0247097 -0.0275396 0.07575
  endloop
 endfacet
 facet normal -0.610915 0.791696 0
  outer loop
   vertex 0.0233202 -0.0287258 0.07575
   vertex 0.0218738 -0.0298419 0.02475
   vertex 0.0218738 -0.0298419 0.07575
  endloop
 endfacet
 facet normal -0.610915 0.791696 0
  outer loop
   vertex 0.0233202 -0.0287258 0.02475
   vertex 0.0218738 -0.0298419 0.02475
   vertex 0.0233202 -0.0287258 0.07575
  endloop
 endfacet
 facet normal -0.57109 0.820887 0
  outer loop
   vertex 0.0218738 -0.0298419 0.07575
   vertex 0.020374 -0.0308853 0.02475
   vertex 0.020374 -0.0308853 0.07575
  endloop
 endfacet
 facet normal -0.529872 0.848077 0
  outer loop
   vertex 0.020374 -0.0308853 0.07575
   vertex 0.020374 -0.0308853 0.02475
   vertex 0.0188246 -0.0318533 0.07575
  endloop
 endfacet
 facet normal -0.57109 0.820887 0
  outer loop
   vertex 0.0218738 -0.0298419 0.02475
   vertex 0.020374 -0.0308853 0.02475
   vertex 0.0218738 -0.0298419 0.07575
  endloop
 endfacet
 facet normal -0.529872 0.848077 0
  outer loop
   vertex 0.020374 -0.0308853 0.02475
   vertex 0.0188246 -0.0318533 0.02475
   vertex 0.0188246 -0.0318533 0.07575
  endloop
 endfacet
 facet normal -0.487364 0.873199 0
  outer loop
   vertex 0.0188246 -0.0318533 0.02475
   vertex 0.0172293 -0.0327437 0.02475
   vertex 0.0188246 -0.0318533 0.07575
  endloop
 endfacet
 facet normal -0.487364 0.873199 0
  outer loop
   vertex 0.0188246 -0.0318533 0.07575
   vertex 0.0172293 -0.0327437 0.02475
   vertex 0.0172293 -0.0327437 0.07575
  endloop
 endfacet
 facet normal -0.443666 0.896192 0
  outer loop
   vertex 0.0172293 -0.0327437 0.02475
   vertex 0.015592 -0.0335543 0.02475
   vertex 0.0172293 -0.0327437 0.07575
  endloop
 endfacet
 facet normal -0.443666 0.896192 0
  outer loop
   vertex 0.0172293 -0.0327437 0.07575
   vertex 0.015592 -0.0335543 0.02475
   vertex 0.015592 -0.0335543 0.07575
  endloop
 endfacet
 facet normal -0.398887 0.917 0
  outer loop
   vertex 0.015592 -0.0335543 0.07575
   vertex 0.015592 -0.0335543 0.02475
   vertex 0.0139166 -0.034283 0.07575
  endloop
 endfacet
 facet normal -0.398887 0.917 0
  outer loop
   vertex 0.015592 -0.0335543 0.02475
   vertex 0.0139166 -0.034283 0.02475
   vertex 0.0139166 -0.034283 0.07575
  endloop
 endfacet
 facet normal -0.353135 0.935572 0
  outer loop
   vertex 0.0139166 -0.034283 0.02475
   vertex 0.0122074 -0.0349282 0.02475
   vertex 0.0139166 -0.034283 0.07575
  endloop
 endfacet
 facet normal -0.353135 0.935572 0
  outer loop
   vertex 0.0139166 -0.034283 0.07575
   vertex 0.0122074 -0.0349282 0.02475
   vertex 0.0122074 -0.0349282 0.07575
  endloop
 endfacet
 facet normal -0.306523 0.951863 0
  outer loop
   vertex 0.0122074 -0.0349282 0.02475
   vertex 0.0104683 -0.0354882 0.02475
   vertex 0.0122074 -0.0349282 0.07575
  endloop
 endfacet
 facet normal -0.306523 0.951863 0
  outer loop
   vertex 0.0122074 -0.0349282 0.07575
   vertex 0.0104683 -0.0354882 0.02475
   vertex 0.0104683 -0.0354882 0.07575
  endloop
 endfacet
 facet normal -0.259163 0.965834 0
  outer loop
   vertex 0.0104683 -0.0354882 0.02475
   vertex 0.00870379 -0.0359617 0.02475
   vertex 0.0104683 -0.0354882 0.07575
  endloop
 endfacet
 facet normal -0.259163 0.965834 0
  outer loop
   vertex 0.0104683 -0.0354882 0.07575
   vertex 0.00870379 -0.0359617 0.02475
   vertex 0.00870379 -0.0359617 0.07575
  endloop
 endfacet
 facet normal -0.971938 -0.235238 0
  outer loop
   vertex 0.00870379 -0.0359617 0.02475
   vertex 0.00929188 -0.0383915 0.02475
   vertex 0.00870379 -0.0359617 0.07575
  endloop
 endfacet
 facet normal -0.971938 -0.235238 0
  outer loop
   vertex 0.00870379 -0.0359617 0.07575
   vertex 0.00929188 -0.0383915 0.02475
   vertex 0.00929188 -0.0383915 0.07575
  endloop
 endfacet
 facet normal 0 0 -1
  outer loop
   vertex 0.00929188 -0.0383915 0.02475
   vertex 0.0104683 -0.0354882 0.02475
   vertex 0.0111757 -0.0378861 0.02475
  endloop
 endfacet
 facet normal 0 0 -1
  outer loop
   vertex 0.00870379 -0.0359617 0.02475
   vertex 0.0104683 -0.0354882 0.02475
   vertex 0.00929188 -0.0383915 0.02475
  endloop
 endfacet
 facet normal 0 0 -1
  outer loop
   vertex 0.0111757 -0.0378861 0.02475
   vertex 0.0122074 -0.0349282 0.02475
   vertex 0.0130322 -0.0372882 0.02475
  endloop
 endfacet
 facet normal 0 0 -1
  outer loop
   vertex 0.0104683 -0.0354882 0.02475
   vertex 0.0122074 -0.0349282 0.02475
   vertex 0.0111757 -0.0378861 0.02475
  endloop
 endfacet
 facet normal 0 0 -1
  outer loop
   vertex 0.0130322 -0.0372882 0.02475
   vertex 0.0139166 -0.034283 0.02475
   vertex 0.014857 -0.0365995 0.02475
  endloop
 endfacet
 facet normal 0 0 -1
  outer loop
   vertex 0.0122074 -0.0349282 0.02475
   vertex 0.0139166 -0.034283 0.02475
   vertex 0.0130322 -0.0372882 0.02475
  endloop
 endfacet
 facet normal 0 0 -1
  outer loop
   vertex 0.014857 -0.0365995 0.02475
   vertex 0.015592 -0.0335543 0.02475
   vertex 0.0166455 -0.0358215 0.02475
  endloop
 endfacet
 facet normal 0 0 -1
  outer loop
   vertex 0.0139166 -0.034283 0.02475
   vertex 0.015592 -0.0335543 0.02475
   vertex 0.014857 -0.0365995 0.02475
  endloop
 endfacet
 facet normal 0 0 -1
  outer loop
   vertex 0.0166455 -0.0358215 0.02475
   vertex 0.0172293 -0.0327437 0.02475
   vertex 0.0183934 -0.0349561 0.02475
  endloop
 endfacet
 facet normal 0 0 -1
  outer loop
   vertex 0.015592 -0.0335543 0.02475
   vertex 0.0172293 -0.0327437 0.02475
   vertex 0.0166455 -0.0358215 0.02475
  endloop
 endfacet
 facet normal 0 0 -1
  outer loop
   vertex 0.0183934 -0.0349561 0.02475
   vertex 0.0188246 -0.0318533 0.02475
   vertex 0.0200965 -0.0340056 0.02475
  endloop
 endfacet
 facet normal 0 0 -1
  outer loop
   vertex 0.0172293 -0.0327437 0.02475
   vertex 0.0188246 -0.0318533 0.02475
   vertex 0.0183934 -0.0349561 0.02475
  endloop
 endfacet
 facet normal 0 0 -1
  outer loop
   vertex 0.0200965 -0.0340056 0.02475
   vertex 0.020374 -0.0308853 0.02475
   vertex 0.0217507 -0.0329721 0.02475
  endloop
 endfacet
 facet normal 0 0 -1
  outer loop
   vertex 0.0188246 -0.0318533 0.02475
   vertex 0.020374 -0.0308853 0.02475
   vertex 0.0200965 -0.0340056 0.02475
  endloop
 endfacet
 facet normal 0 0 -1
  outer loop
   vertex 0.0217507 -0.0329721 0.02475
   vertex 0.0218738 -0.0298419 0.02475
   vertex 0.0233517 -0.0318582 0.02475
  endloop
 endfacet
 facet normal 0 0 -1
  outer loop
   vertex 0.020374 -0.0308853 0.02475
   vertex 0.0218738 -0.0298419 0.02475
   vertex 0.0217507 -0.0329721 0.02475
  endloop
 endfacet
 facet normal 0 0 -1
  outer loop
   vertex 0.0233517 -0.0318582 0.02475
   vertex 0.0233202 -0.0287258 0.02475
   vertex 0.0248959 -0.0306667 0.02475
  endloop
 endfacet
 facet normal 0 0 -1
  outer loop
   vertex 0.0218738 -0.0298419 0.02475
   vertex 0.0233202 -0.0287258 0.02475
   vertex 0.0233517 -0.0318582 0.02475
  endloop
 endfacet
 facet normal 0 0 -1
  outer loop
   vertex 0.0248959 -0.0306667 0.02475
   vertex 0.0247097 -0.0275396 0.02475
   vertex 0.0263793 -0.0294004 0.02475
  endloop
 endfacet
 facet normal 0 0 -1
  outer loop
   vertex 0.0233202 -0.0287258 0.02475
   vertex 0.0247097 -0.0275396 0.02475
   vertex 0.0248959 -0.0306667 0.02475
  endloop
 endfacet
 facet normal 0 0 -1
  outer loop
   vertex 0.0263793 -0.0294004 0.02475
   vertex 0.026039 -0.0262863 0.02475
   vertex 0.0277984 -0.0280624 0.02475
  endloop
 endfacet
 facet normal 0 0 -1
  outer loop
   vertex 0.0247097 -0.0275396 0.02475
   vertex 0.026039 -0.0262863 0.02475
   vertex 0.0263793 -0.0294004 0.02475
  endloop
 endfacet
 facet normal 0 0 -1
  outer loop
   vertex 0.026039 -0.0262863 0.02475
   vertex 0.0291498 -0.026656 0.02475
   vertex 0.0277984 -0.0280624 0.02475
  endloop
 endfacet
 facet normal 0 -0 -1
  outer loop
   vertex 0.0273048 -0.0249689 0.02475
   vertex 0.0291498 -0.026656 0.02475
   vertex 0.026039 -0.0262863 0.02475
  endloop
 endfacet
 facet normal 0 0 -1
  outer loop
   vertex 0.0273048 -0.0249689 0.02475
   vertex 0.0285041 -0.0235906 0.02475
   vertex 0.0291498 -0.026656 0.02475
  endloop
 endfacet
 facet normal 0 0 -1
  outer loop
   vertex 0.0285041 -0.0235906 0.02475
   vertex 0.03043 -0.0251846 0.02475
   vertex 0.0291498 -0.026656 0.02475
  endloop
 endfacet
 facet normal 0 0 -1
  outer loop
   vertex 0.0285041 -0.0235906 0.02475
   vertex 0.0296338 -0.0221548 0.02475
   vertex 0.03043 -0.0251846 0.02475
  endloop
 endfacet
 facet normal 0 0 -1
  outer loop
   vertex 0.0296338 -0.0221548 0.02475
   vertex 0.0316361 -0.0236518 0.02475
   vertex 0.03043 -0.0251846 0.02475
  endloop
 endfacet
 facet normal 0 0 -1
  outer loop
   vertex 0.0296338 -0.0221548 0.02475
   vertex 0.0327651 -0.0220613 0.02475
   vertex 0.0316361 -0.0236518 0.02475
  endloop
 endfacet
 facet normal 0 -0 -1
  outer loop
   vertex 0.0306913 -0.020665 0.02475
   vertex 0.0327651 -0.0220613 0.02475
   vertex 0.0296338 -0.0221548 0.02475
  endloop
 endfacet
 facet normal 0 0 -1
  outer loop
   vertex 0.0306913 -0.020665 0.02475
   vertex 0.0338141 -0.020417 0.02475
   vertex 0.0327651 -0.0220613 0.02475
  endloop
 endfacet
 facet normal 0 -0 -1
  outer loop
   vertex 0.031674 -0.0191248 0.02475
   vertex 0.0338141 -0.020417 0.02475
   vertex 0.0306913 -0.020665 0.02475
  endloop
 endfacet
 facet normal 0 0 -1
  outer loop
   vertex 0.031674 -0.0191248 0.02475
   vertex 0.0325794 -0.017538 0.02475
   vertex 0.0338141 -0.020417 0.02475
  endloop
 endfacet
 facet normal 0 0 -1
  outer loop
   vertex 0.0325794 -0.017538 0.02475
   vertex 0.0347807 -0.018723 0.02475
   vertex 0.0338141 -0.020417 0.02475
  endloop
 endfacet
 facet normal 0 0 -1
  outer loop
   vertex 0.0325794 -0.017538 0.02475
   vertex 0.0356626 -0.0169833 0.02475
   vertex 0.0347807 -0.018723 0.02475
  endloop
 endfacet
 facet normal 0 -0 -1
  outer loop
   vertex 0.0334054 -0.0159084 0.02475
   vertex 0.0356626 -0.0169833 0.02475
   vertex 0.0325794 -0.017538 0.02475
  endloop
 endfacet
 facet normal 0 0 -1
  outer loop
   vertex 0.0334054 -0.0159084 0.02475
   vertex 0.0364574 -0.0152022 0.02475
   vertex 0.0356626 -0.0169833 0.02475
  endloop
 endfacet
 facet normal 0 -0 -1
  outer loop
   vertex 0.03415 -0.01424 0.02475
   vertex 0.0364574 -0.0152022 0.02475
   vertex 0.0334054 -0.0159084 0.02475
  endloop
 endfacet
 facet normal 0 -0 -1
  outer loop
   vertex 0.0348113 -0.0125369 0.02475
   vertex 0.0371634 -0.013384 0.02475
   vertex 0.03415 -0.01424 0.02475
  endloop
 endfacet
 facet normal 0 0 -1
  outer loop
   vertex 0.03415 -0.01424 0.02475
   vertex 0.0371634 -0.013384 0.02475
   vertex 0.0364574 -0.0152022 0.02475
  endloop
 endfacet
 facet normal 0 -0 -1
  outer loop
   vertex 0.0353877 -0.0108033 0.02475
   vertex 0.0377788 -0.0115332 0.02475
   vertex 0.0348113 -0.0125369 0.02475
  endloop
 endfacet
 facet normal 0 0 -1
  outer loop
   vertex 0.0348113 -0.0125369 0.02475
   vertex 0.0377788 -0.0115332 0.02475
   vertex 0.0371634 -0.013384 0.02475
  endloop
 endfacet
 facet normal 0 -0 -1
  outer loop
   vertex 0.0358778 -0.00904326 0.02475
   vertex 0.038302 -0.00965429 0.02475
   vertex 0.0353877 -0.0108033 0.02475
  endloop
 endfacet
 facet normal 0 0 -1
  outer loop
   vertex 0.0353877 -0.0108033 0.02475
   vertex 0.038302 -0.00965429 0.02475
   vertex 0.0377788 -0.0115332 0.02475
  endloop
 endfacet
 facet normal 0 0 -1
  outer loop
   vertex 0.0358778 -0.00904326 0.02475
   vertex 0.0387319 -0.00775183 0.02475
   vertex 0.038302 -0.00965429 0.02475
  endloop
 endfacet
 facet normal 0 -0 -1
  outer loop
   vertex 0.0362805 -0.00726121 0.02475
   vertex 0.0387319 -0.00775183 0.02475
   vertex 0.0358778 -0.00904326 0.02475
  endloop
 endfacet
 facet normal 0 0 -1
  outer loop
   vertex 0.0362805 -0.00726121 0.02475
   vertex 0.0390673 -0.00583047 0.02475
   vertex 0.0387319 -0.00775183 0.02475
  endloop
 endfacet
 facet normal 0 -0 -1
  outer loop
   vertex 0.0365947 -0.00546145 0.02475
   vertex 0.0390673 -0.00583047 0.02475
   vertex 0.0362805 -0.00726121 0.02475
  endloop
 endfacet
 facet normal 0 0 -1
  outer loop
   vertex 0.0365947 -0.00546145 0.02475
   vertex 0.0393075 -0.0038949 0.02475
   vertex 0.0390673 -0.00583047 0.02475
  endloop
 endfacet
 facet normal 0 -0 -1
  outer loop
   vertex 0.0368197 -0.00364838 0.02475
   vertex 0.0393075 -0.0038949 0.02475
   vertex 0.0365947 -0.00546145 0.02475
  endloop
 endfacet
 facet normal 0 0 -1
  outer loop
   vertex 0.0368197 -0.00364838 0.02475
   vertex 0.0394518 -0.00194982 0.02475
   vertex 0.0393075 -0.0038949 0.02475
  endloop
 endfacet
 facet normal 0 -0 -1
  outer loop
   vertex 0.037 0 0.02475
   vertex 0.0394518 -0.00194982 0.02475
   vertex 0.0369549 -0.00182642 0.02475
  endloop
 endfacet
 facet normal 0 -0 -1
  outer loop
   vertex 0.0369549 -0.00182642 0.02475
   vertex 0.0394518 -0.00194982 0.02475
   vertex 0.0368197 -0.00364838 0.02475
  endloop
 endfacet
 facet normal 0 0 -1
  outer loop
   vertex 0.037 0 0.02475
   vertex 0.0395 -5.32907e-18 0.02475
   vertex 0.0394518 -0.00194982 0.02475
  endloop
 endfacet
 facet normal 0 0 -1
  outer loop
   vertex 0.037 0 0.02475
   vertex 0.0394518 0.00194982 0.02475
   vertex 0.0395 -5.32907e-18 0.02475
  endloop
 endfacet
 facet normal 0 0 -1
  outer loop
   vertex 0.0369549 0.00182642 0.02475
   vertex 0.0394518 0.00194982 0.02475
   vertex 0.037 0 0.02475
  endloop
 endfacet
 facet normal 0 0 -1
  outer loop
   vertex 0.0369549 0.00182642 0.02475
   vertex 0.0393075 0.0038949 0.02475
   vertex 0.0394518 0.00194982 0.02475
  endloop
 endfacet
 facet normal 0 0 -1
  outer loop
   vertex 0.0365947 0.00546145 0.02475
   vertex 0.0393075 0.0038949 0.02475
   vertex 0.0368197 0.00364838 0.02475
  endloop
 endfacet
 facet normal 0 0 -1
  outer loop
   vertex 0.0368197 0.00364838 0.02475
   vertex 0.0393075 0.0038949 0.02475
   vertex 0.0369549 0.00182642 0.02475
  endloop
 endfacet
 facet normal 0 0 -1
  outer loop
   vertex 0.0365947 0.00546145 0.02475
   vertex 0.0390673 0.00583047 0.02475
   vertex 0.0393075 0.0038949 0.02475
  endloop
 endfacet
 facet normal 0 0 -1
  outer loop
   vertex 0.0365947 0.00546145 0.02475
   vertex 0.0387319 0.00775183 0.02475
   vertex 0.0390673 0.00583047 0.02475
  endloop
 endfacet
 facet normal 0 0 -1
  outer loop
   vertex 0.0362805 0.00726121 0.02475
   vertex 0.0387319 0.00775183 0.02475
   vertex 0.0365947 0.00546145 0.02475
  endloop
 endfacet
 facet normal 0 0 -1
  outer loop
   vertex 0.00870379 0.0359617 0.02475
   vertex 0.00929188 0.0383915 0.02475
   vertex 0.0104683 0.0354882 0.02475
  endloop
 endfacet
 facet normal 0 0 -1
  outer loop
   vertex 0.0362805 0.00726121 0.02475
   vertex 0.038302 0.00965429 0.02475
   vertex 0.0387319 0.00775183 0.02475
  endloop
 endfacet
 facet normal 0 0 -1
  outer loop
   vertex 0.0358778 0.00904326 0.02475
   vertex 0.038302 0.00965429 0.02475
   vertex 0.0362805 0.00726121 0.02475
  endloop
 endfacet
 facet normal 0 0 -1
  outer loop
   vertex 0.00929188 0.0383915 0.02475
   vertex 0.0111757 0.0378861 0.02475
   vertex 0.0104683 0.0354882 0.02475
  endloop
 endfacet
 facet normal 0 0 -1
  outer loop
   vertex 0.0104683 0.0354882 0.02475
   vertex 0.0111757 0.0378861 0.02475
   vertex 0.0122074 0.0349282 0.02475
  endloop
 endfacet
 facet normal 0 0 -1
  outer loop
   vertex 0.0358778 0.00904326 0.02475
   vertex 0.0377788 0.0115332 0.02475
   vertex 0.038302 0.00965429 0.02475
  endloop
 endfacet
 facet normal 0 0 -1
  outer loop
   vertex 0.0348113 0.0125369 0.02475
   vertex 0.0377788 0.0115332 0.02475
   vertex 0.0353877 0.0108033 0.02475
  endloop
 endfacet
 facet normal 0 0 -1
  outer loop
   vertex 0.0353877 0.0108033 0.02475
   vertex 0.0377788 0.0115332 0.02475
   vertex 0.0358778 0.00904326 0.02475
  endloop
 endfacet
 facet normal 0 0 -1
  outer loop
   vertex 0.0122074 0.0349282 0.02475
   vertex 0.0130322 0.0372882 0.02475
   vertex 0.0139166 0.034283 0.02475
  endloop
 endfacet
 facet normal 0 0 -1
  outer loop
   vertex 0.0111757 0.0378861 0.02475
   vertex 0.0130322 0.0372882 0.02475
   vertex 0.0122074 0.0349282 0.02475
  endloop
 endfacet
 facet normal 0 0 -1
  outer loop
   vertex 0.0348113 0.0125369 0.02475
   vertex 0.0371634 0.013384 0.02475
   vertex 0.0377788 0.0115332 0.02475
  endloop
 endfacet
 facet normal 0 0 -1
  outer loop
   vertex 0.0139166 0.034283 0.02475
   vertex 0.014857 0.0365995 0.02475
   vertex 0.015592 0.0335543 0.02475
  endloop
 endfacet
 facet normal 0 0 -1
  outer loop
   vertex 0.0130322 0.0372882 0.02475
   vertex 0.014857 0.0365995 0.02475
   vertex 0.0139166 0.034283 0.02475
  endloop
 endfacet
 facet normal 0 0 -1
  outer loop
   vertex 0.0348113 0.0125369 0.02475
   vertex 0.0364574 0.0152022 0.02475
   vertex 0.0371634 0.013384 0.02475
  endloop
 endfacet
 facet normal 0 0 -1
  outer loop
   vertex 0.03415 0.01424 0.02475
   vertex 0.0364574 0.0152022 0.02475
   vertex 0.0348113 0.0125369 0.02475
  endloop
 endfacet
 facet normal 0 0 -1
  outer loop
   vertex 0.015592 0.0335543 0.02475
   vertex 0.0166455 0.0358215 0.02475
   vertex 0.0172293 0.0327437 0.02475
  endloop
 endfacet
 facet normal 0 0 -1
  outer loop
   vertex 0.014857 0.0365995 0.02475
   vertex 0.0166455 0.0358215 0.02475
   vertex 0.015592 0.0335543 0.02475
  endloop
 endfacet
 facet normal 0 0 -1
  outer loop
   vertex 0.0325794 0.017538 0.02475
   vertex 0.0356626 0.0169833 0.02475
   vertex 0.0334054 0.0159084 0.02475
  endloop
 endfacet
 facet normal 0 0 -1
  outer loop
   vertex 0.0334054 0.0159084 0.02475
   vertex 0.0356626 0.0169833 0.02475
   vertex 0.03415 0.01424 0.02475
  endloop
 endfacet
 facet normal 0 0 -1
  outer loop
   vertex 0.03415 0.01424 0.02475
   vertex 0.0356626 0.0169833 0.02475
   vertex 0.0364574 0.0152022 0.02475
  endloop
 endfacet
 facet normal 0 0 -1
  outer loop
   vertex 0.0172293 0.0327437 0.02475
   vertex 0.0183934 0.0349561 0.02475
   vertex 0.0188246 0.0318533 0.02475
  endloop
 endfacet
 facet normal 0 0 -1
  outer loop
   vertex 0.0166455 0.0358215 0.02475
   vertex 0.0183934 0.0349561 0.02475
   vertex 0.0172293 0.0327437 0.02475
  endloop
 endfacet
 facet normal 0 0 -1
  outer loop
   vertex 0.0325794 0.017538 0.02475
   vertex 0.0347807 0.018723 0.02475
   vertex 0.0356626 0.0169833 0.02475
  endloop
 endfacet
 facet normal 0 0 -1
  outer loop
   vertex 0.0183934 0.0349561 0.02475
   vertex 0.0200965 0.0340056 0.02475
   vertex 0.0188246 0.0318533 0.02475
  endloop
 endfacet
 facet normal 0 0 -1
  outer loop
   vertex 0.0188246 0.0318533 0.02475
   vertex 0.0200965 0.0340056 0.02475
   vertex 0.020374 0.0308853 0.02475
  endloop
 endfacet
 facet normal 0 0 -1
  outer loop
   vertex 0.0325794 0.017538 0.02475
   vertex 0.0338141 0.020417 0.02475
   vertex 0.0347807 0.018723 0.02475
  endloop
 endfacet
 facet normal 0 0 -1
  outer loop
   vertex 0.031674 0.0191248 0.02475
   vertex 0.0338141 0.020417 0.02475
   vertex 0.0325794 0.017538 0.02475
  endloop
 endfacet
 facet normal 0 0 -1
  outer loop
   vertex 0.020374 0.0308853 0.02475
   vertex 0.0217507 0.0329721 0.02475
   vertex 0.0218738 0.0298419 0.02475
  endloop
 endfacet
 facet normal 0 0 -1
  outer loop
   vertex 0.0200965 0.0340056 0.02475
   vertex 0.0217507 0.0329721 0.02475
   vertex 0.020374 0.0308853 0.02475
  endloop
 endfacet
 facet normal 0 0 -1
  outer loop
   vertex 0.031674 0.0191248 0.02475
   vertex 0.0327651 0.0220613 0.02475
   vertex 0.0338141 0.020417 0.02475
  endloop
 endfacet
 facet normal 0 0 -1
  outer loop
   vertex 0.0306913 0.020665 0.02475
   vertex 0.0327651 0.0220613 0.02475
   vertex 0.031674 0.0191248 0.02475
  endloop
 endfacet
 facet normal 0 0 -1
  outer loop
   vertex 0.0217507 0.0329721 0.02475
   vertex 0.0233517 0.0318582 0.02475
   vertex 0.0218738 0.0298419 0.02475
  endloop
 endfacet
 facet normal 0 0 -1
  outer loop
   vertex 0.0218738 0.0298419 0.02475
   vertex 0.0233517 0.0318582 0.02475
   vertex 0.0233202 0.0287258 0.02475
  endloop
 endfacet
 facet normal 0 0 -1
  outer loop
   vertex 0.0306913 0.020665 0.02475
   vertex 0.0316361 0.0236518 0.02475
   vertex 0.0327651 0.0220613 0.02475
  endloop
 endfacet
 facet normal 0 0 -1
  outer loop
   vertex 0.0296338 0.0221548 0.02475
   vertex 0.0316361 0.0236518 0.02475
   vertex 0.0306913 0.020665 0.02475
  endloop
 endfacet
 facet normal 0 -0 -1
  outer loop
   vertex 0.0233517 0.0318582 0.02475
   vertex 0.0248959 0.0306667 0.02475
   vertex 0.0233202 0.0287258 0.02475
  endloop
 endfacet
 facet normal 0 0 -1
  outer loop
   vertex 0.0296338 0.0221548 0.02475
   vertex 0.03043 0.0251846 0.02475
   vertex 0.0316361 0.0236518 0.02475
  endloop
 endfacet
 facet normal 0 0 -1
  outer loop
   vertex 0.0273048 0.0249689 0.02475
   vertex 0.03043 0.0251846 0.02475
   vertex 0.0285041 0.0235906 0.02475
  endloop
 endfacet
 facet normal 0 0 -1
  outer loop
   vertex 0.0285041 0.0235906 0.02475
   vertex 0.03043 0.0251846 0.02475
   vertex 0.0296338 0.0221548 0.02475
  endloop
 endfacet
 facet normal 0 -0 -1
  outer loop
   vertex 0.0248959 0.0306667 0.02475
   vertex 0.0263793 0.0294004 0.02475
   vertex 0.0233202 0.0287258 0.02475
  endloop
 endfacet
 facet normal 0 0 -1
  outer loop
   vertex 0.0233202 0.0287258 0.02475
   vertex 0.0263793 0.0294004 0.02475
   vertex 0.0247097 0.0275396 0.02475
  endloop
 endfacet
 facet normal 0 0 -1
  outer loop
   vertex 0.0247097 0.0275396 0.02475
   vertex 0.0263793 0.0294004 0.02475
   vertex 0.026039 0.0262863 0.02475
  endloop
 endfacet
 facet normal 0 0 -1
  outer loop
   vertex 0.0273048 0.0249689 0.02475
   vertex 0.0291498 0.026656 0.02475
   vertex 0.03043 0.0251846 0.02475
  endloop
 endfacet
 facet normal 0 -0 -1
  outer loop
   vertex 0.0263793 0.0294004 0.02475
   vertex 0.0277984 0.0280624 0.02475
   vertex 0.026039 0.0262863 0.02475
  endloop
 endfacet
 facet normal 0 0 -1
  outer loop
   vertex 0.0273048 0.0249689 0.02475
   vertex 0.0277984 0.0280624 0.02475
   vertex 0.0291498 0.026656 0.02475
  endloop
 endfacet
 facet normal 0 0 -1
  outer loop
   vertex 0.026039 0.0262863 0.02475
   vertex 0.0277984 0.0280624 0.02475
   vertex 0.0273048 0.0249689 0.02475
  endloop
 endfacet
 facet normal 0 0 1
  outer loop
   vertex 0.0104683 -0.0354882 0.07575
   vertex 0.00929188 -0.0383915 0.07575
   vertex 0.0111757 -0.0378861 0.07575
  endloop
 endfacet
 facet normal 0 0 1
  outer loop
   vertex 0.0104683 -0.0354882 0.07575
   vertex 0.00870379 -0.0359617 0.07575
   vertex 0.00929188 -0.0383915 0.07575
  endloop
 endfacet
 facet normal 0 0 1
  outer loop
   vertex 0.0122074 -0.0349282 0.07575
   vertex 0.0111757 -0.0378861 0.07575
   vertex 0.0130322 -0.0372882 0.07575
  endloop
 endfacet
 facet normal 0 0 1
  outer loop
   vertex 0.0122074 -0.0349282 0.07575
   vertex 0.0104683 -0.0354882 0.07575
   vertex 0.0111757 -0.0378861 0.07575
  endloop
 endfacet
 facet normal 0 0 1
  outer loop
   vertex 0.0139166 -0.034283 0.07575
   vertex 0.0130322 -0.0372882 0.07575
   vertex 0.014857 -0.0365995 0.07575
  endloop
 endfacet
 facet normal 0 0 1
  outer loop
   vertex 0.0139166 -0.034283 0.07575
   vertex 0.0122074 -0.0349282 0.07575
   vertex 0.0130322 -0.0372882 0.07575
  endloop
 endfacet
 facet normal 0 0 1
  outer loop
   vertex 0.015592 -0.0335543 0.07575
   vertex 0.014857 -0.0365995 0.07575
   vertex 0.0166455 -0.0358215 0.07575
  endloop
 endfacet
 facet normal 0 0 1
  outer loop
   vertex 0.015592 -0.0335543 0.07575
   vertex 0.0139166 -0.034283 0.07575
   vertex 0.014857 -0.0365995 0.07575
  endloop
 endfacet
 facet normal 0 0 1
  outer loop
   vertex 0.0172293 -0.0327437 0.07575
   vertex 0.0166455 -0.0358215 0.07575
   vertex 0.0183934 -0.0349561 0.07575
  endloop
 endfacet
 facet normal 0 0 1
  outer loop
   vertex 0.0172293 -0.0327437 0.07575
   vertex 0.015592 -0.0335543 0.07575
   vertex 0.0166455 -0.0358215 0.07575
  endloop
 endfacet
 facet normal 0 0 1
  outer loop
   vertex 0.0188246 -0.0318533 0.07575
   vertex 0.0183934 -0.0349561 0.07575
   vertex 0.0200965 -0.0340056 0.07575
  endloop
 endfacet
 facet normal 0 0 1
  outer loop
   vertex 0.0188246 -0.0318533 0.07575
   vertex 0.0172293 -0.0327437 0.07575
   vertex 0.0183934 -0.0349561 0.07575
  endloop
 endfacet
 facet normal 0 0 1
  outer loop
   vertex 0.020374 -0.0308853 0.07575
   vertex 0.0200965 -0.0340056 0.07575
   vertex 0.0217507 -0.0329721 0.07575
  endloop
 endfacet
 facet normal 0 0 1
  outer loop
   vertex 0.020374 -0.0308853 0.07575
   vertex 0.0188246 -0.0318533 0.07575
   vertex 0.0200965 -0.0340056 0.07575
  endloop
 endfacet
 facet normal 0 0 1
  outer loop
   vertex 0.0218738 -0.0298419 0.07575
   vertex 0.0217507 -0.0329721 0.07575
   vertex 0.0233517 -0.0318582 0.07575
  endloop
 endfacet
 facet normal 0 0 1
  outer loop
   vertex 0.0218738 -0.0298419 0.07575
   vertex 0.020374 -0.0308853 0.07575
   vertex 0.0217507 -0.0329721 0.07575
  endloop
 endfacet
 facet normal 0 0 1
  outer loop
   vertex 0.0233202 -0.0287258 0.07575
   vertex 0.0233517 -0.0318582 0.07575
   vertex 0.0248959 -0.0306667 0.07575
  endloop
 endfacet
 facet normal 0 0 1
  outer loop
   vertex 0.0233202 -0.0287258 0.07575
   vertex 0.0218738 -0.0298419 0.07575
   vertex 0.0233517 -0.0318582 0.07575
  endloop
 endfacet
 facet normal 0 0 1
  outer loop
   vertex 0.0247097 -0.0275396 0.07575
   vertex 0.0248959 -0.0306667 0.07575
   vertex 0.0263793 -0.0294004 0.07575
  endloop
 endfacet
 facet normal 0 0 1
  outer loop
   vertex 0.0247097 -0.0275396 0.07575
   vertex 0.0233202 -0.0287258 0.07575
   vertex 0.0248959 -0.0306667 0.07575
  endloop
 endfacet
 facet normal 0 0 1
  outer loop
   vertex 0.026039 -0.0262863 0.07575
   vertex 0.0263793 -0.0294004 0.07575
   vertex 0.0277984 -0.0280624 0.07575
  endloop
 endfacet
 facet normal 0 0 1
  outer loop
   vertex 0.026039 -0.0262863 0.07575
   vertex 0.0247097 -0.0275396 0.07575
   vertex 0.0263793 -0.0294004 0.07575
  endloop
 endfacet
 facet normal 0 0 1
  outer loop
   vertex 0.0291498 -0.026656 0.07575
   vertex 0.026039 -0.0262863 0.07575
   vertex 0.0277984 -0.0280624 0.07575
  endloop
 endfacet
 facet normal 0 0 1
  outer loop
   vertex 0.0291498 -0.026656 0.07575
   vertex 0.0273048 -0.0249689 0.07575
   vertex 0.026039 -0.0262863 0.07575
  endloop
 endfacet
 facet normal 0 0 1
  outer loop
   vertex 0.0285041 -0.0235906 0.07575
   vertex 0.0273048 -0.0249689 0.07575
   vertex 0.0291498 -0.026656 0.07575
  endloop
 endfacet
 facet normal 0 0 1
  outer loop
   vertex 0.03043 -0.0251846 0.07575
   vertex 0.0285041 -0.0235906 0.07575
   vertex 0.0291498 -0.026656 0.07575
  endloop
 endfacet
 facet normal 0 0 1
  outer loop
   vertex 0.0296338 -0.0221548 0.07575
   vertex 0.0285041 -0.0235906 0.07575
   vertex 0.03043 -0.0251846 0.07575
  endloop
 endfacet
 facet normal 0 0 1
  outer loop
   vertex 0.0316361 -0.0236518 0.07575
   vertex 0.0296338 -0.0221548 0.07575
   vertex 0.03043 -0.0251846 0.07575
  endloop
 endfacet
 facet normal 0 0 1
  outer loop
   vertex 0.0327651 -0.0220613 0.07575
   vertex 0.0296338 -0.0221548 0.07575
   vertex 0.0316361 -0.0236518 0.07575
  endloop
 endfacet
 facet normal 0 0 1
  outer loop
   vertex 0.0327651 -0.0220613 0.07575
   vertex 0.0306913 -0.020665 0.07575
   vertex 0.0296338 -0.0221548 0.07575
  endloop
 endfacet
 facet normal 0 0 1
  outer loop
   vertex 0.0338141 -0.020417 0.07575
   vertex 0.0306913 -0.020665 0.07575
   vertex 0.0327651 -0.0220613 0.07575
  endloop
 endfacet
 facet normal 0 0 1
  outer loop
   vertex 0.0338141 -0.020417 0.07575
   vertex 0.031674 -0.0191248 0.07575
   vertex 0.0306913 -0.020665 0.07575
  endloop
 endfacet
 facet normal 0 0 1
  outer loop
   vertex 0.0325794 -0.017538 0.07575
   vertex 0.031674 -0.0191248 0.07575
   vertex 0.0338141 -0.020417 0.07575
  endloop
 endfacet
 facet normal 0 0 1
  outer loop
   vertex 0.0347807 -0.018723 0.07575
   vertex 0.0325794 -0.017538 0.07575
   vertex 0.0338141 -0.020417 0.07575
  endloop
 endfacet
 facet normal 0 0 1
  outer loop
   vertex 0.0356626 -0.0169833 0.07575
   vertex 0.0325794 -0.017538 0.07575
   vertex 0.0347807 -0.018723 0.07575
  endloop
 endfacet
 facet normal 0 0 1
  outer loop
   vertex 0.0356626 -0.0169833 0.07575
   vertex 0.0334054 -0.0159084 0.07575
   vertex 0.0325794 -0.017538 0.07575
  endloop
 endfacet
 facet normal 0 0 1
  outer loop
   vertex 0.0364574 -0.0152022 0.07575
   vertex 0.0334054 -0.0159084 0.07575
   vertex 0.0356626 -0.0169833 0.07575
  endloop
 endfacet
 facet normal 0 0 1
  outer loop
   vertex 0.0364574 -0.0152022 0.07575
   vertex 0.03415 -0.01424 0.07575
   vertex 0.0334054 -0.0159084 0.07575
  endloop
 endfacet
 facet normal 0 0 1
  outer loop
   vertex 0.0371634 -0.013384 0.07575
   vertex 0.0348113 -0.0125369 0.07575
   vertex 0.03415 -0.01424 0.07575
  endloop
 endfacet
 facet normal 0 0 1
  outer loop
   vertex 0.0371634 -0.013384 0.07575
   vertex 0.03415 -0.01424 0.07575
   vertex 0.0364574 -0.0152022 0.07575
  endloop
 endfacet
 facet normal 0 0 1
  outer loop
   vertex 0.0377788 -0.0115332 0.07575
   vertex 0.0353877 -0.0108033 0.07575
   vertex 0.0348113 -0.0125369 0.07575
  endloop
 endfacet
 facet normal 0 0 1
  outer loop
   vertex 0.0377788 -0.0115332 0.07575
   vertex 0.0348113 -0.0125369 0.07575
   vertex 0.0371634 -0.013384 0.07575
  endloop
 endfacet
 facet normal 0 0 1
  outer loop
   vertex 0.038302 -0.00965429 0.07575
   vertex 0.0358778 -0.00904326 0.07575
   vertex 0.0353877 -0.0108033 0.07575
  endloop
 endfacet
 facet normal 0 0 1
  outer loop
   vertex 0.038302 -0.00965429 0.07575
   vertex 0.0353877 -0.0108033 0.07575
   vertex 0.0377788 -0.0115332 0.07575
  endloop
 endfacet
 facet normal 0 0 1
  outer loop
   vertex 0.0387319 -0.00775183 0.07575
   vertex 0.0358778 -0.00904326 0.07575
   vertex 0.038302 -0.00965429 0.07575
  endloop
 endfacet
 facet normal 0 0 1
  outer loop
   vertex 0.0387319 -0.00775183 0.07575
   vertex 0.0362805 -0.00726121 0.07575
   vertex 0.0358778 -0.00904326 0.07575
  endloop
 endfacet
 facet normal 0 0 1
  outer loop
   vertex 0.0390673 -0.00583047 0.07575
   vertex 0.0362805 -0.00726121 0.07575
   vertex 0.0387319 -0.00775183 0.07575
  endloop
 endfacet
 facet normal 0 0 1
  outer loop
   vertex 0.0390673 -0.00583047 0.07575
   vertex 0.0365947 -0.00546145 0.07575
   vertex 0.0362805 -0.00726121 0.07575
  endloop
 endfacet
 facet normal 0 0 1
  outer loop
   vertex 0.0393075 -0.0038949 0.07575
   vertex 0.0365947 -0.00546145 0.07575
   vertex 0.0390673 -0.00583047 0.07575
  endloop
 endfacet
 facet normal 0 0 1
  outer loop
   vertex 0.0393075 -0.0038949 0.07575
   vertex 0.0368197 -0.00364838 0.07575
   vertex 0.0365947 -0.00546145 0.07575
  endloop
 endfacet
 facet normal 0 0 1
  outer loop
   vertex 0.0394518 -0.00194982 0.07575
   vertex 0.0368197 -0.00364838 0.07575
   vertex 0.0393075 -0.0038949 0.07575
  endloop
 endfacet
 facet normal 0 0 1
  outer loop
   vertex 0.0394518 -0.00194982 0.07575
   vertex 0.037 0 0.07575
   vertex 0.0369549 -0.00182642 0.07575
  endloop
 endfacet
 facet normal 0 0 1
  outer loop
   vertex 0.0394518 -0.00194982 0.07575
   vertex 0.0369549 -0.00182642 0.07575
   vertex 0.0368197 -0.00364838 0.07575
  endloop
 endfacet
 facet normal 0 0 1
  outer loop
   vertex 0.0395 -5.32907e-18 0.07575
   vertex 0.037 0 0.07575
   vertex 0.0394518 -0.00194982 0.07575
  endloop
 endfacet
 facet normal 0 0 1
  outer loop
   vertex 0.0394518 0.00194982 0.07575
   vertex 0.037 0 0.07575
   vertex 0.0395 -5.32907e-18 0.07575
  endloop
 endfacet
 facet normal 0 0 1
  outer loop
   vertex 0.0394518 0.00194982 0.07575
   vertex 0.0369549 0.00182642 0.07575
   vertex 0.037 0 0.07575
  endloop
 endfacet
 facet normal 0 0 1
  outer loop
   vertex 0.0393075 0.0038949 0.07575
   vertex 0.0369549 0.00182642 0.07575
   vertex 0.0394518 0.00194982 0.07575
  endloop
 endfacet
 facet normal 0 0 1
  outer loop
   vertex 0.0393075 0.0038949 0.07575
   vertex 0.0365947 0.00546145 0.07575
   vertex 0.0368197 0.00364838 0.07575
  endloop
 endfacet
 facet normal 0 0 1
  outer loop
   vertex 0.0393075 0.0038949 0.07575
   vertex 0.0368197 0.00364838 0.07575
   vertex 0.0369549 0.00182642 0.07575
  endloop
 endfacet
 facet normal 0 0 1
  outer loop
   vertex 0.0390673 0.00583047 0.07575
   vertex 0.0365947 0.00546145 0.07575
   vertex 0.0393075 0.0038949 0.07575
  endloop
 endfacet
 facet normal 0 0 1
  outer loop
   vertex 0.0387319 0.00775183 0.07575
   vertex 0.0365947 0.00546145 0.07575
   vertex 0.0390673 0.00583047 0.07575
  endloop
 endfacet
 facet normal 0 0 1
  outer loop
   vertex 0.0387319 0.00775183 0.07575
   vertex 0.0362805 0.00726121 0.07575
   vertex 0.0365947 0.00546145 0.07575
  endloop
 endfacet
 facet normal 0 0 1
  outer loop
   vertex 0.00929188 0.0383915 0.07575
   vertex 0.00870379 0.0359617 0.07575
   vertex 0.0104683 0.0354882 0.07575
  endloop
 endfacet
 facet normal 0 0 1
  outer loop
   vertex 0.038302 0.00965429 0.07575
   vertex 0.0362805 0.00726121 0.07575
   vertex 0.0387319 0.00775183 0.07575
  endloop
 endfacet
 facet normal 0 0 1
  outer loop
   vertex 0.038302 0.00965429 0.07575
   vertex 0.0358778 0.00904326 0.07575
   vertex 0.0362805 0.00726121 0.07575
  endloop
 endfacet
 facet normal 0 0 1
  outer loop
   vertex 0.0111757 0.0378861 0.07575
   vertex 0.00929188 0.0383915 0.07575
   vertex 0.0104683 0.0354882 0.07575
  endloop
 endfacet
 facet normal 0 0 1
  outer loop
   vertex 0.0111757 0.0378861 0.07575
   vertex 0.0104683 0.0354882 0.07575
   vertex 0.0122074 0.0349282 0.07575
  endloop
 endfacet
 facet normal 0 0 1
  outer loop
   vertex 0.0377788 0.0115332 0.07575
   vertex 0.0358778 0.00904326 0.07575
   vertex 0.038302 0.00965429 0.07575
  endloop
 endfacet
 facet normal 0 0 1
  outer loop
   vertex 0.0377788 0.0115332 0.07575
   vertex 0.0348113 0.0125369 0.07575
   vertex 0.0353877 0.0108033 0.07575
  endloop
 endfacet
 facet normal 0 0 1
  outer loop
   vertex 0.0377788 0.0115332 0.07575
   vertex 0.0353877 0.0108033 0.07575
   vertex 0.0358778 0.00904326 0.07575
  endloop
 endfacet
 facet normal 0 0 1
  outer loop
   vertex 0.0130322 0.0372882 0.07575
   vertex 0.0122074 0.0349282 0.07575
   vertex 0.0139166 0.034283 0.07575
  endloop
 endfacet
 facet normal 0 0 1
  outer loop
   vertex 0.0130322 0.0372882 0.07575
   vertex 0.0111757 0.0378861 0.07575
   vertex 0.0122074 0.0349282 0.07575
  endloop
 endfacet
 facet normal 0 0 1
  outer loop
   vertex 0.0371634 0.013384 0.07575
   vertex 0.0348113 0.0125369 0.07575
   vertex 0.0377788 0.0115332 0.07575
  endloop
 endfacet
 facet normal 0 0 1
  outer loop
   vertex 0.014857 0.0365995 0.07575
   vertex 0.0139166 0.034283 0.07575
   vertex 0.015592 0.0335543 0.07575
  endloop
 endfacet
 facet normal 0 0 1
  outer loop
   vertex 0.014857 0.0365995 0.07575
   vertex 0.0130322 0.0372882 0.07575
   vertex 0.0139166 0.034283 0.07575
  endloop
 endfacet
 facet normal 0 0 1
  outer loop
   vertex 0.0364574 0.0152022 0.07575
   vertex 0.0348113 0.0125369 0.07575
   vertex 0.0371634 0.013384 0.07575
  endloop
 endfacet
 facet normal 0 0 1
  outer loop
   vertex 0.0364574 0.0152022 0.07575
   vertex 0.03415 0.01424 0.07575
   vertex 0.0348113 0.0125369 0.07575
  endloop
 endfacet
 facet normal 0 0 1
  outer loop
   vertex 0.0166455 0.0358215 0.07575
   vertex 0.015592 0.0335543 0.07575
   vertex 0.0172293 0.0327437 0.07575
  endloop
 endfacet
 facet normal 0 0 1
  outer loop
   vertex 0.0166455 0.0358215 0.07575
   vertex 0.014857 0.0365995 0.07575
   vertex 0.015592 0.0335543 0.07575
  endloop
 endfacet
 facet normal 0 0 1
  outer loop
   vertex 0.0356626 0.0169833 0.07575
   vertex 0.0325794 0.017538 0.07575
   vertex 0.0334054 0.0159084 0.07575
  endloop
 endfacet
 facet normal 0 0 1
  outer loop
   vertex 0.0356626 0.0169833 0.07575
   vertex 0.0334054 0.0159084 0.07575
   vertex 0.03415 0.01424 0.07575
  endloop
 endfacet
 facet normal 0 0 1
  outer loop
   vertex 0.0356626 0.0169833 0.07575
   vertex 0.03415 0.01424 0.07575
   vertex 0.0364574 0.0152022 0.07575
  endloop
 endfacet
 facet normal 0 0 1
  outer loop
   vertex 0.0183934 0.0349561 0.07575
   vertex 0.0172293 0.0327437 0.07575
   vertex 0.0188246 0.0318533 0.07575
  endloop
 endfacet
 facet normal 0 0 1
  outer loop
   vertex 0.0183934 0.0349561 0.07575
   vertex 0.0166455 0.0358215 0.07575
   vertex 0.0172293 0.0327437 0.07575
  endloop
 endfacet
 facet normal 0 0 1
  outer loop
   vertex 0.0347807 0.018723 0.07575
   vertex 0.0325794 0.017538 0.07575
   vertex 0.0356626 0.0169833 0.07575
  endloop
 endfacet
 facet normal 0 0 1
  outer loop
   vertex 0.0200965 0.0340056 0.07575
   vertex 0.0183934 0.0349561 0.07575
   vertex 0.0188246 0.0318533 0.07575
  endloop
 endfacet
 facet normal 0 0 1
  outer loop
   vertex 0.0200965 0.0340056 0.07575
   vertex 0.0188246 0.0318533 0.07575
   vertex 0.020374 0.0308853 0.07575
  endloop
 endfacet
 facet normal 0 0 1
  outer loop
   vertex 0.0338141 0.020417 0.07575
   vertex 0.0325794 0.017538 0.07575
   vertex 0.0347807 0.018723 0.07575
  endloop
 endfacet
 facet normal 0 0 1
  outer loop
   vertex 0.0338141 0.020417 0.07575
   vertex 0.031674 0.0191248 0.07575
   vertex 0.0325794 0.017538 0.07575
  endloop
 endfacet
 facet normal 0 0 1
  outer loop
   vertex 0.0217507 0.0329721 0.07575
   vertex 0.020374 0.0308853 0.07575
   vertex 0.0218738 0.0298419 0.07575
  endloop
 endfacet
 facet normal 0 0 1
  outer loop
   vertex 0.0217507 0.0329721 0.07575
   vertex 0.0200965 0.0340056 0.07575
   vertex 0.020374 0.0308853 0.07575
  endloop
 endfacet
 facet normal 0 0 1
  outer loop
   vertex 0.0327651 0.0220613 0.07575
   vertex 0.031674 0.0191248 0.07575
   vertex 0.0338141 0.020417 0.07575
  endloop
 endfacet
 facet normal 0 0 1
  outer loop
   vertex 0.0327651 0.0220613 0.07575
   vertex 0.0306913 0.020665 0.07575
   vertex 0.031674 0.0191248 0.07575
  endloop
 endfacet
 facet normal 0 0 1
  outer loop
   vertex 0.0233517 0.0318582 0.07575
   vertex 0.0217507 0.0329721 0.07575
   vertex 0.0218738 0.0298419 0.07575
  endloop
 endfacet
 facet normal 0 0 1
  outer loop
   vertex 0.0233517 0.0318582 0.07575
   vertex 0.0218738 0.0298419 0.07575
   vertex 0.0233202 0.0287258 0.07575
  endloop
 endfacet
 facet normal 0 0 1
  outer loop
   vertex 0.0316361 0.0236518 0.07575
   vertex 0.0306913 0.020665 0.07575
   vertex 0.0327651 0.0220613 0.07575
  endloop
 endfacet
 facet normal 0 0 1
  outer loop
   vertex 0.0316361 0.0236518 0.07575
   vertex 0.0296338 0.0221548 0.07575
   vertex 0.0306913 0.020665 0.07575
  endloop
 endfacet
 facet normal 0 0 1
  outer loop
   vertex 0.0248959 0.0306667 0.07575
   vertex 0.0233517 0.0318582 0.07575
   vertex 0.0233202 0.0287258 0.07575
  endloop
 endfacet
 facet normal 0 0 1
  outer loop
   vertex 0.03043 0.0251846 0.07575
   vertex 0.0296338 0.0221548 0.07575
   vertex 0.0316361 0.0236518 0.07575
  endloop
 endfacet
 facet normal 0 0 1
  outer loop
   vertex 0.03043 0.0251846 0.07575
   vertex 0.0273048 0.0249689 0.07575
   vertex 0.0285041 0.0235906 0.07575
  endloop
 endfacet
 facet normal 0 0 1
  outer loop
   vertex 0.03043 0.0251846 0.07575
   vertex 0.0285041 0.0235906 0.07575
   vertex 0.0296338 0.0221548 0.07575
  endloop
 endfacet
 facet normal 0 0 1
  outer loop
   vertex 0.0263793 0.0294004 0.07575
   vertex 0.0248959 0.0306667 0.07575
   vertex 0.0233202 0.0287258 0.07575
  endloop
 endfacet
 facet normal 0 0 1
  outer loop
   vertex 0.0263793 0.0294004 0.07575
   vertex 0.0233202 0.0287258 0.07575
   vertex 0.0247097 0.0275396 0.07575
  endloop
 endfacet
 facet normal 0 0 1
  outer loop
   vertex 0.0263793 0.0294004 0.07575
   vertex 0.0247097 0.0275396 0.07575
   vertex 0.026039 0.0262863 0.07575
  endloop
 endfacet
 facet normal 0 0 1
  outer loop
   vertex 0.0291498 0.026656 0.07575
   vertex 0.0273048 0.0249689 0.07575
   vertex 0.03043 0.0251846 0.07575
  endloop
 endfacet
 facet normal 0 0 1
  outer loop
   vertex 0.0277984 0.0280624 0.07575
   vertex 0.0263793 0.0294004 0.07575
   vertex 0.026039 0.0262863 0.07575
  endloop
 endfacet
 facet normal 0 0 1
  outer loop
   vertex 0.0277984 0.0280624 0.07575
   vertex 0.0273048 0.0249689 0.07575
   vertex 0.0291498 0.026656 0.07575
  endloop
 endfacet
 facet normal 0 0 1
  outer loop
   vertex 0.0277984 0.0280624 0.07575
   vertex 0.026039 0.0262863 0.07575
   vertex 0.0273048 0.0249689 0.07575
  endloop
 endfacet
endsolid zone0
