<?xml version="1.0" encoding="utf-8" standalone="no"?>
<!DOCTYPE svg PUBLIC "-//W3C//DTD SVG 1.1//EN"
  "http://www.w3.org/Graphics/SVG/1.1/DTD/svg11.dtd">
<svg xmlns:xlink="http://www.w3.org/1999/xlink" width="271.25pt" height="36.98pt" viewBox="0 0 271.25 36.98" xmlns="http://www.w3.org/2000/svg" version="1.1">
 <metadata>
  <rdf:RDF xmlns:dc="http://purl.org/dc/elements/1.1/" xmlns:cc="http://creativecommons.org/ns#" xmlns:rdf="http://www.w3.org/1999/02/22-rdf-syntax-ns#">
   <cc:Work>
    <dc:type rdf:resource="http://purl.org/dc/dcmitype/StillImage"/>
    <dc:date>2026-09-11T06:06:17.285158</dc:date>
    <dc:format>image/svg+xml</dc:format>
    <dc:creator>
     <cc:Agent>
      <dc:title>Matplotlib v3.10.9, https://matplotlib.org/</dc:title>
     </cc:Agent>
    </dc:creator>
   </cc:Work>
  </rdf:RDF>
 </metadata>
 <defs>
  <style type="text/css">*{stroke-linejoin: round; stroke-linecap: butt}</style>
 </defs>
 <g id="figure_1">
  <g id="patch_1">
   <path d="M 0 36.98 
L 271.25 36.98 
L 271.25 0 
L 0 0 
L 0 36.98 
z
" style="fill: none"/>
  </g>
  <g id="text_1">
   <!-- $h(x)=Hx+c\ \Longrightarrow\ a_y^{(i)}=Ha_x^{(i)}$ -->
   <g transform="translate(5.76 23.24) scale(0.19 -0.19)">
    <defs>
     <path id="DejaVuSans-Oblique-68" d="M 3566 2113 
L 3156 0 
L 2578 0 
L 2988 2091 
Q 3016 2238 3031 2350 
Q 3047 2463 3047 2528 
Q 3047 2791 2881 2937 
Q 2716 3084 2419 3084 
Q 1956 3084 1617 2771 
Q 1278 2459 1178 1941 
L 800 0 
L 225 0 
L 1172 4863 
L 1747 4863 
L 1375 2950 
Q 1594 3244 1934 3414 
Q 2275 3584 2650 3584 
Q 3113 3584 3367 3334 
Q 3622 3084 3622 2631 
Q 3622 2519 3608 2391 
Q 3594 2263 3566 2113 
z
" transform="scale(0.015625)"/>
     <path id="DejaVuSans-28" d="M 1984 4856 
Q 1566 4138 1362 3434 
Q 1159 2731 1159 2009 
Q 1159 1288 1364 580 
Q 1569 -128 1984 -844 
L 1484 -844 
Q 1016 -109 783 600 
Q 550 1309 550 2009 
Q 550 2706 781 3412 
Q 1013 4119 1484 4856 
L 1984 4856 
z
" transform="scale(0.015625)"/>
     <path id="DejaVuSans-Oblique-78" d="M 3841 3500 
L 2234 1784 
L 3219 0 
L 2559 0 
L 1819 1388 
L 531 0 
L -166 0 
L 1556 1844 
L 641 3500 
L 1300 3500 
L 1972 2234 
L 3144 3500 
L 3841 3500 
z
" transform="scale(0.015625)"/>
     <path id="DejaVuSans-29" d="M 513 4856 
L 1013 4856 
Q 1481 4119 1714 3412 
Q 1947 2706 1947 2009 
Q 1947 1309 1714 600 
Q 1481 -109 1013 -844 
L 513 -844 
Q 928 -128 1133 580 
Q 1338 1288 1338 2009 
Q 1338 2731 1133 3434 
Q 928 4138 513 4856 
z
" transform="scale(0.015625)"/>
     <path id="DejaVuSans-3d" d="M 678 2906 
L 4684 2906 
L 4684 2381 
L 678 2381 
L 678 2906 
z
M 678 1631 
L 4684 1631 
L 4684 1100 
L 678 1100 
L 678 1631 
z
" transform="scale(0.015625)"/>
     <path id="DejaVuSans-Oblique-48" d="M 1081 4666 
L 1716 4666 
L 1344 2753 
L 3634 2753 
L 4006 4666 
L 4641 4666 
L 3731 0 
L 3097 0 
L 3531 2222 
L 1241 2222 
L 806 0 
L 172 0 
L 1081 4666 
z
" transform="scale(0.015625)"/>
     <path id="DejaVuSans-2b" d="M 2944 4013 
L 2944 2272 
L 4684 2272 
L 4684 1741 
L 2944 1741 
L 2944 0 
L 2419 0 
L 2419 1741 
L 678 1741 
L 678 2272 
L 2419 2272 
L 2419 4013 
L 2944 4013 
z
" transform="scale(0.015625)"/>
     <path id="DejaVuSans-Oblique-63" d="M 3431 3366 
L 3316 2797 
Q 3109 2947 2876 3022 
Q 2644 3097 2394 3097 
Q 2119 3097 1870 3000 
Q 1622 2903 1453 2725 
Q 1184 2453 1037 2087 
Q 891 1722 891 1331 
Q 891 859 1127 628 
Q 1363 397 1844 397 
Q 2081 397 2348 469 
Q 2616 541 2906 684 
L 2797 116 
Q 2547 13 2283 -39 
Q 2019 -91 1741 -91 
Q 1044 -91 669 257 
Q 294 606 294 1253 
Q 294 1797 489 2255 
Q 684 2713 1069 3078 
Q 1331 3328 1684 3456 
Q 2038 3584 2456 3584 
Q 2700 3584 2940 3529 
Q 3181 3475 3431 3366 
z
" transform="scale(0.015625)"/>
     <path id="DejaVuSans-27f9" d="M 7925 1678 
L 8253 2006 
L 7925 2334 
L 366 2334 
L 366 2709 
L 7550 2709 
L 7259 3000 
L 7634 3375 
L 8863 2147 
L 8863 1866 
L 7634 638 
L 7259 1013 
L 7550 1303 
L 366 1303 
L 366 1678 
L 7925 1678 
z
" transform="scale(0.015625)"/>
     <path id="DejaVuSans-Oblique-61" d="M 3438 1997 
L 3047 0 
L 2472 0 
L 2578 531 
Q 2325 219 2001 64 
Q 1678 -91 1281 -91 
Q 834 -91 548 182 
Q 263 456 263 884 
Q 263 1497 752 1853 
Q 1241 2209 2100 2209 
L 2900 2209 
L 2931 2363 
Q 2938 2388 2941 2417 
Q 2944 2447 2944 2509 
Q 2944 2788 2717 2942 
Q 2491 3097 2081 3097 
Q 1800 3097 1504 3025 
Q 1209 2953 897 2809 
L 997 3341 
Q 1322 3463 1633 3523 
Q 1944 3584 2234 3584 
Q 2853 3584 3176 3315 
Q 3500 3047 3500 2534 
Q 3500 2431 3484 2292 
Q 3469 2153 3438 1997 
z
M 2816 1759 
L 2241 1759 
Q 1534 1759 1195 1570 
Q 856 1381 856 984 
Q 856 709 1029 553 
Q 1203 397 1509 397 
Q 1978 397 2328 733 
Q 2678 1069 2791 1631 
L 2816 1759 
z
" transform="scale(0.015625)"/>
     <path id="DejaVuSans-Oblique-69" d="M 1172 4863 
L 1747 4863 
L 1606 4134 
L 1031 4134 
L 1172 4863 
z
M 909 3500 
L 1484 3500 
L 800 0 
L 225 0 
L 909 3500 
z
" transform="scale(0.015625)"/>
     <path id="DejaVuSans-Oblique-79" d="M 1588 -325 
Q 1188 -997 936 -1164 
Q 684 -1331 294 -1331 
L -159 -1331 
L -63 -850 
L 269 -850 
Q 509 -850 678 -719 
Q 847 -588 1056 -206 
L 1234 128 
L 459 3500 
L 1069 3500 
L 1650 819 
L 3256 3500 
L 3859 3500 
L 1588 -325 
z
" transform="scale(0.015625)"/>
    </defs>
    <use xlink:href="#DejaVuSans-Oblique-68" transform="translate(0 0.529687)"/>
    <use xlink:href="#DejaVuSans-28" transform="translate(63.378906 0.529687)"/>
    <use xlink:href="#DejaVuSans-Oblique-78" transform="translate(102.392578 0.529687)"/>
    <use xlink:href="#DejaVuSans-29" transform="translate(161.572266 0.529687)"/>
    <use xlink:href="#DejaVuSans-3d" transform="translate(220.068359 0.529687)"/>
    <use xlink:href="#DejaVuSans-Oblique-48" transform="translate(323.339844 0.529687)"/>
    <use xlink:href="#DejaVuSans-Oblique-78" transform="translate(398.535156 0.529687)"/>
    <use xlink:href="#DejaVuSans-2b" transform="translate(477.197266 0.529687)"/>
    <use xlink:href="#DejaVuSans-Oblique-63" transform="translate(580.46875 0.529687)"/>
    <use xlink:href="#DejaVuSans-27f9" transform="translate(687.402019 0.529687)"/>
    <use xlink:href="#DejaVuSans-Oblique-61" transform="translate(882.714194 0.529687)"/>
    <use xlink:href="#DejaVuSans-28" transform="translate(948.643387 38.810938) scale(0.7)"/>
    <use xlink:href="#DejaVuSans-Oblique-69" transform="translate(975.952957 38.810938) scale(0.7)"/>
    <use xlink:href="#DejaVuSans-29" transform="translate(995.4012 38.810938) scale(0.7)"/>
    <use xlink:href="#DejaVuSans-Oblique-79" transform="translate(943.993491 -26.814063) scale(0.7)"/>
    <use xlink:href="#DejaVuSans-3d" transform="translate(1044.927567 0.529687)"/>
    <use xlink:href="#DejaVuSans-Oblique-48" transform="translate(1148.199051 0.529687)"/>
    <use xlink:href="#DejaVuSans-Oblique-61" transform="translate(1223.394364 0.529687)"/>
    <use xlink:href="#DejaVuSans-28" transform="translate(1289.323556 38.810938) scale(0.7)"/>
    <use xlink:href="#DejaVuSans-Oblique-69" transform="translate(1316.633127 38.810938) scale(0.7)"/>
    <use xlink:href="#DejaVuSans-29" transform="translate(1336.081369 38.810938) scale(0.7)"/>
    <use xlink:href="#DejaVuSans-Oblique-78" transform="translate(1284.67366 -26.814063) scale(0.7)"/>
   </g>
  </g>
 </g>
</svg>
